<svg height="50px" viewBox="0 0 512 512" width="50px" xmlns="http://www.w3.org/2000/svg"><path d="m241 432.734375c0 8.269531 6.71875 15 15 15s15-6.730469 15-15c0-8.28125-6.71875-15-15-15s-15 6.71875-15 15zm0 0"/><path d="m431.949219 29.320312c-47.269531-18.90625-109.757813-29.320312-175.949219-29.320312s-128.679688 10.414062-175.949219 29.320312c-51.621093 20.648438-80.050781 49.796876-80.050781 82.078126v96.402343c0 32.28125 28.429688 61.429688 80.050781 82.078125 43.683594 17.472656 100.363281 27.683594 160.949219 29.136719v35.894531c-36.558594 7.03125-64.265625 39.246094-64.265625 77.824219 0 43.707031 35.558594 79.265625 79.265625 79.265625s79.265625-35.558594 79.265625-79.265625c0-38.582031-27.707031-70.792969-64.265625-77.824219v-35.894531c60.585938-1.453125 117.265625-11.664063 160.949219-29.136719 51.621093-20.648437 80.050781-49.796875 80.050781-82.078125v-96.402343c0-32.28125-28.429688-61.429688-80.050781-82.078126zm-142.75 226.679688c0 18.308594-14.894531 33.199219-33.199219 33.199219s-33.199219-14.894531-33.199219-33.199219 14.894531-33.199219 33.199219-33.199219 33.199219 14.890625 33.199219 33.199219zm-33.199219-63.199219c-110.257812 0-169.921875-29.15625-179.074219-32.988281 43.183594-20.894531 108.929688-33.414062 179.074219-33.414062s135.890625 12.519531 179.074219 33.414062c-8.855469 3.710938-68.796875 32.988281-179.074219 32.988281zm-145.667969-142.476562c15.507813-4.972657 32.40625-9.089844 50.335938-12.285157v65.9375c-17.800781 2.960938-34.671875 6.757813-50.335938 11.3125zm160.667969 46.257812v-66.390625c17.230469.429688 34.085938 1.601563 50.332031 3.472656v66.207032c-16.269531-1.765625-33.105469-2.882813-50.332031-3.289063zm-30 0c-17.226562.40625-34.0625 1.523438-50.332031 3.289063v-66.207032c16.246093-1.871093 33.101562-3.042968 50.332031-3.472656zm110.332031 7.394531v-65.941406c17.929688 3.195313 34.828125 7.316406 50.335938 12.285156v64.96875c-15.664063-4.554687-32.535157-8.351562-50.335938-11.3125zm-271-42.132812v63.714844c-11.867187 4.75-22.71875 10.015625-32.339843 15.769531-7.957032-6.667969-17.816407-17.023437-17.992188-30.011719.058594-16.769531 18.648438-34.859375 50.332031-49.472656zm-50.332031 145.957031v-42.5c12.953125 10.597657 29.929688 20.175781 50.589844 28.390625 34.472656 13.707032 77 22.910156 123.097656 26.882813-6.867188 10.113281-10.886719 22.308593-10.886719 35.425781 0 11.09375 2.882813 21.523438 7.925781 30.597656-41.234374-3.957031-78.96875-12.347656-109.535156-24.574218-38.316406-15.324219-61.191406-35.597657-61.191406-54.222657zm275.265625 224.933594c0 27.164063-22.101563 49.265625-49.265625 49.265625s-49.265625-22.101562-49.265625-49.265625c0-27.167969 22.101563-49.269531 49.265625-49.269531s49.265625 22.101562 49.265625 49.269531zm176.734375-224.933594c0 18.625-22.875 38.898438-61.191406 54.222657-30.566406 12.226562-68.300782 20.617187-109.535156 24.574218 5.042968-9.074218 7.925781-19.503906 7.925781-30.597656 0-13.117188-4.019531-25.3125-10.890625-35.425781 46.101562-3.96875 88.628906-13.175781 123.101562-26.882813 20.660156-8.214844 37.632813-17.792968 50.589844-28.390625zm-17.992188-66.472656c-9.621093-5.753906-20.472656-11.019531-32.339843-15.769531v-63.714844c31.683593 14.613281 50.273437 32.703125 50.332031 49.472656-.171875 12.976563-10.011719 23.324219-17.992188 30.011719zm0 0"/></svg>