<?xml version="1.0" standalone="no"?>
<!DOCTYPE svg PUBLIC "-//W3C//DTD SVG 20010904//EN"
 "http://www.w3.org/TR/2001/REC-SVG-20010904/DTD/svg10.dtd">
<svg version="1.0" xmlns="http://www.w3.org/2000/svg"
 width="65px" height="65px" viewBox="0 0 960.000000 956.000000"
 preserveAspectRatio="xMidYMid meet">
<metadata>
Created by potrace 1.15, written by Peter Selinger 2001-2017
</metadata>
<g transform="translate(0.000000,956.000000) scale(0.100000,-0.100000)"
fill="#000000" stroke="none">
<path d="M4415 9450 c-11 -5 -65 -9 -120 -10 -59 0 -116 -7 -140 -15 -22 -8
-70 -15 -107 -15 -37 0 -70 -4 -73 -10 -3 -5 -30 -10 -59 -10 -30 0 -67 -7
-82 -15 -16 -8 -48 -15 -71 -15 -23 0 -45 -4 -48 -10 -3 -5 -26 -10 -50 -10
-24 0 -47 -4 -50 -10 -3 -5 -21 -10 -39 -10 -18 0 -41 -7 -52 -15 -10 -8 -33
-15 -51 -15 -17 0 -35 -4 -38 -10 -3 -5 -21 -10 -40 -10 -19 0 -37 -4 -40 -10
-3 -5 -19 -10 -34 -10 -16 0 -34 -7 -41 -15 -7 -8 -25 -15 -41 -15 -15 0 -31
-4 -34 -10 -3 -5 -19 -10 -35 -10 -15 0 -30 -7 -34 -15 -3 -8 -13 -15 -23 -15
-21 0 -89 -23 -99 -33 -4 -4 -17 -7 -29 -7 -13 0 -28 -7 -35 -15 -7 -8 -19
-15 -26 -15 -8 0 -22 -4 -32 -9 -9 -5 -28 -13 -42 -18 -14 -6 -50 -21 -80 -36
-30 -14 -62 -28 -70 -31 -8 -4 -28 -15 -45 -25 -16 -11 -38 -20 -47 -20 -10
-1 -18 -5 -18 -11 0 -5 -9 -10 -19 -10 -11 0 -23 -4 -26 -10 -3 -5 -23 -17
-43 -27 -20 -9 -59 -31 -87 -48 -27 -17 -57 -34 -65 -38 -8 -4 -33 -18 -55
-32 -22 -14 -47 -28 -55 -32 -8 -4 -29 -17 -46 -30 -17 -13 -36 -23 -42 -23
-6 0 -12 -3 -14 -7 -1 -5 -35 -29 -74 -55 -39 -26 -77 -54 -84 -63 -7 -8 -18
-15 -24 -15 -6 0 -31 -18 -56 -40 -25 -22 -48 -40 -52 -40 -4 0 -33 -22 -63
-50 -30 -27 -59 -50 -63 -50 -4 0 -25 -18 -47 -40 -22 -22 -69 -63 -105 -92
-72 -57 -271 -254 -311 -308 -14 -19 -56 -66 -92 -105 -37 -38 -67 -73 -67
-77 0 -4 -21 -32 -47 -62 -66 -75 -116 -141 -125 -165 -4 -11 -16 -26 -28 -33
-11 -7 -20 -16 -20 -21 0 -9 -64 -106 -85 -128 -8 -9 -15 -19 -15 -22 0 -4
-20 -38 -45 -77 -25 -39 -45 -75 -45 -80 0 -6 -4 -10 -9 -10 -5 0 -14 -12 -20
-27 -6 -16 -22 -46 -35 -68 -14 -22 -40 -69 -57 -105 -18 -36 -36 -66 -41 -68
-4 -2 -8 -9 -8 -16 0 -7 -16 -43 -35 -80 -19 -37 -35 -74 -35 -82 0 -8 -4 -14
-10 -14 -5 0 -10 -7 -10 -16 0 -9 -6 -28 -14 -42 -7 -15 -19 -40 -26 -57 -7
-16 -16 -38 -21 -47 -5 -10 -9 -26 -9 -37 0 -10 -7 -24 -15 -31 -8 -7 -15 -23
-15 -36 0 -12 -5 -26 -10 -29 -6 -3 -10 -15 -10 -25 0 -10 -8 -33 -17 -52 -31
-62 -33 -68 -33 -92 0 -14 -4 -28 -10 -31 -5 -3 -10 -19 -10 -34 0 -15 -7 -36
-15 -47 -8 -10 -15 -34 -15 -51 0 -18 -4 -33 -10 -33 -5 0 -10 -15 -10 -34 0
-19 -4 -37 -9 -40 -4 -3 -11 -28 -15 -55 -4 -28 -11 -53 -16 -56 -6 -3 -10
-26 -10 -50 0 -24 -4 -47 -10 -50 -5 -3 -10 -28 -10 -54 0 -26 -5 -52 -11 -58
-13 -13 -27 -109 -35 -233 -3 -41 -10 -79 -15 -84 -5 -6 -9 -51 -9 -100 0 -50
-7 -129 -15 -176 -18 -100 -20 -469 -4 -540 6 -25 15 -99 20 -165 16 -228 42
-422 58 -438 6 -6 11 -35 11 -63 0 -29 5 -56 10 -59 6 -3 10 -25 10 -48 0 -23
7 -51 15 -61 8 -11 15 -34 15 -52 0 -18 5 -36 10 -39 6 -3 10 -21 10 -40 0
-19 5 -37 10 -40 6 -3 10 -21 10 -38 0 -18 7 -41 15 -51 8 -11 15 -32 15 -47
0 -15 5 -31 10 -34 6 -3 10 -17 10 -30 0 -13 5 -27 10 -30 6 -3 10 -14 10 -23
0 -9 7 -30 15 -46 8 -15 15 -37 15 -47 0 -10 5 -21 10 -24 6 -3 10 -17 10 -29
0 -13 7 -29 15 -36 8 -7 15 -21 15 -31 0 -10 5 -21 10 -24 5 -3 10 -15 10 -26
0 -18 8 -37 32 -79 4 -8 11 -22 14 -30 36 -91 119 -260 171 -348 24 -41 43
-80 43 -88 0 -8 4 -14 8 -14 5 0 14 -10 20 -22 6 -13 23 -41 37 -63 13 -22 29
-49 34 -60 5 -11 16 -29 25 -40 27 -34 66 -95 66 -104 0 -4 9 -16 21 -27 12
-10 29 -35 39 -54 10 -19 27 -44 39 -54 12 -11 21 -24 21 -31 0 -7 10 -20 21
-31 12 -10 38 -41 59 -69 20 -27 48 -61 62 -75 13 -14 38 -45 55 -70 40 -58
473 -489 537 -535 27 -19 61 -46 75 -60 26 -25 83 -69 144 -112 18 -12 41 -30
53 -40 11 -10 28 -22 37 -28 9 -5 50 -34 91 -62 42 -29 80 -53 85 -53 6 0 14
-6 18 -13 4 -8 15 -16 23 -20 8 -4 33 -18 55 -32 22 -14 47 -28 55 -32 8 -3
28 -16 45 -27 16 -11 75 -44 130 -72 55 -28 123 -62 150 -76 55 -28 176 -84
215 -100 14 -6 37 -17 52 -24 14 -8 33 -14 42 -14 9 0 16 -4 16 -10 0 -5 10
-10 23 -10 12 0 45 -12 72 -25 28 -14 60 -25 73 -25 12 0 22 -4 22 -10 0 -5
13 -10 29 -10 16 0 34 -7 41 -15 7 -8 25 -15 41 -15 15 0 31 -5 34 -10 3 -6
19 -10 35 -10 16 0 32 -4 35 -10 3 -5 21 -10 38 -10 18 0 41 -7 51 -15 11 -8
34 -15 52 -15 18 0 36 -4 39 -10 3 -5 23 -10 44 -10 20 0 41 -4 47 -10 5 -5
27 -10 49 -11 22 -1 50 -8 62 -16 12 -7 45 -13 72 -13 27 0 53 -5 56 -10 3 -6
34 -10 69 -10 36 0 67 -5 74 -12 14 -14 84 -21 382 -39 230 -15 373 -15 610
-1 273 17 369 27 382 40 7 7 39 12 74 12 35 0 66 5 69 10 3 6 27 10 53 10 26
1 58 7 72 15 14 8 44 14 67 15 23 0 45 5 48 10 3 6 24 10 45 10 21 0 42 4 45
10 3 5 21 10 38 10 18 0 41 6 52 14 19 12 42 19 123 33 18 3 35 9 38 14 3 5
15 9 28 9 12 0 31 7 42 15 10 8 31 15 47 15 15 0 27 5 27 10 0 6 9 10 20 10
11 0 43 11 72 25 28 14 62 25 75 25 13 0 23 5 23 10 0 6 6 10 14 10 8 0 29 8
48 17 60 30 68 33 82 33 7 0 19 7 26 15 7 8 16 13 20 10 5 -3 15 2 23 10 9 8
22 15 31 15 8 0 18 4 21 10 3 5 15 10 25 10 10 0 20 3 22 8 3 7 99 56 131 66
9 3 17 10 17 16 0 5 6 10 14 10 14 0 44 14 86 42 14 9 53 31 88 50 35 19 72
42 83 51 10 9 25 17 32 17 8 0 24 11 37 25 13 14 28 25 33 25 5 0 22 11 39 25
16 14 36 25 44 25 8 0 14 3 14 8 0 4 21 22 48 40 82 57 116 82 147 110 17 15
41 33 55 41 14 8 54 39 89 70 114 101 492 475 531 526 21 28 56 70 79 95 23
24 41 47 41 51 0 4 18 27 40 51 22 23 40 48 40 54 0 5 16 25 35 44 19 19 35
39 35 45 0 6 11 22 25 35 14 13 25 30 25 37 0 8 11 26 25 41 14 15 25 32 25
38 0 6 9 19 20 29 11 10 20 22 20 27 0 5 11 24 25 42 14 18 25 36 25 40 0 4
15 30 33 59 18 29 36 59 40 67 4 8 16 29 26 45 11 17 20 38 20 48 1 9 4 17 9
17 8 0 16 15 87 165 26 55 51 107 56 115 5 8 12 22 15 30 14 35 27 66 35 82 5
10 9 24 9 32 0 7 7 19 15 26 8 7 15 25 15 41 0 16 5 29 10 29 6 0 10 11 10 24
0 14 4 28 10 31 5 3 10 17 10 29 0 13 7 29 15 36 8 7 15 25 15 41 0 15 5 31
10 34 6 3 10 19 10 34 0 16 7 34 15 41 8 7 15 25 15 41 0 15 5 31 10 34 6 3
10 21 10 40 0 19 5 37 10 40 6 3 10 21 10 39 0 18 7 41 15 52 8 10 15 36 15
56 0 20 5 40 10 43 5 3 10 25 10 49 0 23 4 46 9 52 5 5 12 33 14 63 3 29 10
58 16 64 6 6 11 39 11 73 0 35 4 66 10 69 5 3 10 40 10 81 0 44 6 86 14 102
37 72 36 988 -1 1033 -6 8 -14 50 -17 94 -7 106 -21 204 -41 290 -9 39 -19 90
-22 115 -3 25 -9 49 -14 55 -5 5 -9 26 -9 46 0 20 -6 42 -14 48 -8 7 -17 31
-20 54 -16 104 -19 117 -27 117 -5 0 -9 13 -9 28 0 16 -7 37 -15 48 -8 10 -15
31 -15 46 0 15 -4 30 -10 33 -5 3 -10 17 -10 30 0 13 -4 27 -10 30 -5 3 -10
17 -10 30 0 13 -7 30 -15 39 -8 8 -15 26 -15 40 0 14 -4 28 -10 31 -5 3 -10
14 -10 24 0 10 -7 24 -15 31 -8 7 -15 23 -15 36 0 12 -4 26 -10 29 -5 3 -10
15 -10 26 0 10 -4 19 -10 19 -5 0 -10 5 -10 12 0 6 -9 30 -19 52 -59 127 -125
258 -155 311 -19 33 -43 76 -52 95 -10 19 -27 49 -38 65 -12 17 -30 47 -41 68
-11 21 -28 47 -38 57 -9 11 -17 24 -17 30 0 6 -11 23 -25 38 -14 15 -25 32
-25 38 0 6 -11 21 -25 34 -14 13 -25 28 -25 34 0 6 -16 29 -35 51 -19 22 -35
45 -35 51 0 5 -16 25 -35 44 -19 19 -35 39 -35 44 0 6 -20 31 -45 56 -24 25
-44 50 -45 56 -1 29 -561 594 -589 594 -5 0 -33 22 -62 50 -30 27 -59 50 -65
50 -6 0 -21 12 -35 26 -13 15 -42 38 -63 51 -22 14 -49 34 -60 44 -11 11 -25
19 -31 19 -6 0 -22 11 -35 25 -13 14 -29 25 -35 25 -6 0 -22 11 -35 25 -13 14
-30 25 -37 25 -8 0 -26 11 -41 25 -15 14 -30 25 -35 25 -10 0 -91 53 -95 63
-2 4 -10 7 -18 7 -7 0 -37 15 -66 33 -29 18 -69 41 -88 51 -19 9 -48 25 -65
36 -16 10 -38 19 -47 19 -10 1 -18 6 -18 11 0 6 -8 10 -19 10 -10 0 -24 7 -31
15 -7 8 -21 15 -31 15 -11 0 -19 5 -19 10 0 6 -7 10 -15 10 -8 0 -40 12 -72
26 -32 14 -69 31 -83 36 -42 18 -84 35 -110 47 -14 5 -49 18 -78 27 -29 9 -55
20 -58 25 -3 5 -16 9 -29 9 -13 0 -27 5 -30 10 -3 6 -17 10 -30 10 -13 0 -36
6 -52 14 -38 19 -95 36 -121 36 -11 0 -24 5 -27 10 -3 6 -21 10 -38 10 -18 0
-41 7 -51 15 -11 8 -36 15 -56 15 -20 0 -40 4 -45 9 -6 5 -28 11 -50 14 -100
14 -158 26 -168 36 -6 6 -37 11 -68 11 -32 0 -61 5 -64 10 -3 6 -38 10 -76 10
-39 0 -80 5 -92 12 -12 6 -73 13 -136 15 -63 3 -122 8 -132 14 -22 11 -577 11
-604 -1z m1050 -490 c6 -4 29 -10 52 -13 31 -4 52 -15 82 -45 38 -37 41 -45
41 -94 0 -62 -17 -105 -43 -114 -18 -6 -18 -7 2 -28 12 -12 21 -30 21 -39 0
-9 5 -19 10 -22 13 -8 13 -72 1 -80 -5 -3 -12 -19 -16 -35 -4 -17 -10 -30 -15
-30 -5 0 -11 -9 -15 -19 -3 -11 -12 -18 -19 -15 -7 3 -19 -2 -26 -11 -17 -21
-187 -22 -216 0 -10 8 -37 15 -59 15 -31 0 -44 6 -58 25 -16 23 -16 27 -2 55
9 17 15 48 13 69 -1 22 3 45 9 53 7 7 13 41 14 75 1 34 5 60 9 58 4 -3 10 25
12 62 2 39 9 68 16 71 7 2 12 18 12 36 0 18 3 36 6 39 9 8 156 -3 169 -13z
m-1697 -58 c31 -24 27 -66 -5 -70 -13 -2 -23 -8 -23 -13 0 -5 -14 -9 -30 -9
-17 0 -45 -7 -61 -16 -17 -8 -37 -13 -44 -10 -7 2 -21 -2 -32 -9 -10 -8 -31
-15 -47 -15 -26 0 -28 -2 -21 -27 3 -16 9 -44 12 -63 8 -52 21 -64 49 -45 13
8 37 15 53 15 16 0 33 5 36 10 3 6 28 10 56 10 l49 0 0 -39 c0 -42 -11 -51
-59 -51 -15 0 -31 -3 -35 -7 -4 -5 -26 -12 -49 -18 -39 -9 -42 -12 -43 -45 0
-19 5 -45 13 -57 7 -12 13 -28 13 -36 0 -15 56 -12 77 5 6 5 27 10 45 10 18 1
42 7 53 14 11 6 39 15 63 19 49 8 72 -5 72 -40 0 -26 -46 -55 -87 -55 -14 0
-31 -7 -39 -15 -9 -8 -28 -15 -44 -15 -16 0 -32 -4 -35 -10 -3 -5 -24 -10 -46
-10 -21 0 -39 -4 -39 -9 0 -11 -46 -20 -71 -14 -10 3 -19 12 -19 20 0 8 -7 21
-15 29 -8 8 -12 21 -8 29 3 8 -2 26 -11 40 -9 13 -16 40 -16 59 0 19 -4 38
-10 41 -5 3 -10 19 -10 35 0 16 -4 32 -10 35 -5 3 -10 21 -10 38 0 18 -7 41
-15 51 -8 11 -15 30 -15 43 0 13 -7 35 -16 49 -16 24 -16 26 6 49 13 14 31 25
41 25 10 0 21 5 24 10 3 6 23 10 44 10 22 0 44 6 51 15 7 8 25 15 41 15 15 0
31 5 34 10 3 6 26 10 51 10 24 0 44 5 44 10 0 15 12 12 38 -8z m821 -98 c27
-22 31 -32 31 -76 0 -66 -24 -87 -97 -88 -44 0 -55 4 -72 26 -33 42 -28 98 11
135 42 37 85 39 127 3z m1596 -34 c3 -5 17 -10 29 -10 13 0 29 -7 36 -15 7 -8
18 -15 24 -15 17 0 86 -63 86 -78 0 -6 5 -12 10 -12 6 0 10 -11 10 -25 0 -14
5 -25 10 -25 6 0 10 -37 10 -90 0 -53 -4 -90 -10 -90 -5 0 -10 -13 -10 -29 0
-16 -10 -39 -25 -55 -14 -15 -25 -32 -25 -38 0 -6 -3 -8 -7 -5 -3 4 -13 -2
-20 -13 -18 -25 -90 -63 -104 -55 -5 4 -21 0 -34 -9 -28 -18 -61 -21 -70 -6
-3 6 -21 10 -40 10 -18 0 -40 7 -49 15 -8 8 -21 15 -29 15 -19 0 -116 97 -128
127 -12 33 -12 223 1 223 6 0 10 11 10 25 0 14 4 25 9 25 5 0 13 9 16 20 8 24
55 70 71 70 6 0 17 7 24 15 7 8 16 13 20 10 4 -2 16 2 26 10 22 17 149 21 159
5z m-3120 -120 c3 -5 14 -10 24 -10 10 0 37 -18 59 -41 l42 -41 0 -78 c0 -43
-4 -82 -10 -85 -13 -8 11 -45 29 -45 8 0 29 -11 47 -25 18 -14 36 -25 39 -25
4 0 20 -13 36 -30 30 -29 30 -30 12 -55 -20 -28 -54 -32 -73 -10 -7 8 -16 12
-21 9 -5 -3 -20 6 -33 20 -13 14 -29 26 -36 26 -7 0 -25 11 -42 25 -33 28 -64
31 -90 11 -20 -14 -24 -51 -8 -61 6 -3 10 -14 10 -24 0 -10 7 -24 15 -31 8 -7
12 -16 9 -21 -2 -5 4 -16 15 -26 20 -16 20 -17 -5 -40 -32 -30 -55 -29 -84 2
-13 14 -20 25 -16 25 4 0 1 12 -7 28 -34 64 -67 138 -67 150 0 6 -4 12 -10 12
-5 0 -10 11 -10 24 0 13 -7 26 -15 30 -8 3 -15 15 -15 26 0 11 -4 20 -10 20
-5 0 -10 7 -10 14 0 8 -11 36 -25 62 -22 41 -23 50 -12 73 7 14 21 27 32 29
11 3 24 11 28 19 5 8 16 11 27 8 11 -3 20 0 24 10 3 8 16 15 28 15 13 0 30 5
38 10 20 13 77 13 85 0z m3816 -230 c17 0 19 -8 19 -94 0 -53 -4 -98 -10 -101
-5 -3 -10 -34 -10 -68 0 -35 -7 -74 -15 -91 -9 -16 -15 -55 -15 -91 0 -69 -20
-129 -46 -139 -36 -14 -86 69 -54 89 6 3 10 22 10 41 0 27 -4 34 -20 34 -11 0
-20 5 -20 10 0 6 -6 10 -13 10 -8 0 -27 11 -43 25 -16 14 -36 25 -45 25 -9 0
-19 7 -23 15 -3 8 -12 15 -20 15 -8 0 -21 -7 -30 -15 -8 -8 -21 -15 -30 -15
-8 0 -18 -4 -21 -10 -3 -5 -22 -10 -41 -10 -27 0 -37 5 -43 23 -7 18 -3 28 22
55 17 17 35 32 40 32 5 0 27 16 48 35 22 19 45 35 52 35 7 0 27 16 46 35 18
19 38 35 44 35 7 0 31 17 54 38 67 60 116 93 131 87 7 -3 22 -5 33 -5z m-4451
-125 c7 -8 18 -15 25 -15 6 0 20 -9 30 -20 10 -11 22 -20 28 -20 5 0 22 -11
39 -25 16 -14 35 -25 41 -25 7 0 24 -11 39 -25 15 -14 32 -25 37 -25 6 0 22
-11 37 -25 15 -14 32 -25 37 -25 6 0 21 -10 33 -21 13 -12 33 -27 45 -33 58
-29 48 -79 -16 -84 -30 -3 -43 2 -66 24 -27 26 -31 27 -56 13 -16 -7 -39 -24
-52 -36 -13 -13 -30 -23 -37 -23 -8 0 -14 -4 -14 -8 0 -5 -18 -17 -39 -28 -38
-18 -39 -19 -25 -46 23 -45 18 -93 -12 -113 -21 -14 -28 -14 -42 -3 -26 20
-32 32 -26 51 3 10 -1 26 -9 35 -8 9 -17 42 -20 72 -8 83 -24 165 -36 188 -6
11 -11 39 -11 61 0 22 -4 43 -10 46 -15 9 -13 112 3 118 25 11 65 6 77 -8z
m2685 -62 c50 -4 99 -14 111 -20 13 -8 42 -10 77 -6 50 5 57 4 57 -12 0 -15 7
-17 50 -13 33 3 56 1 68 -8 9 -7 30 -14 45 -14 15 0 39 -7 52 -16 14 -9 33
-13 44 -9 12 3 31 -1 46 -11 14 -9 34 -14 44 -11 11 3 28 -3 40 -15 12 -10 26
-16 32 -13 5 4 21 0 34 -9 13 -9 36 -16 50 -16 14 0 25 -4 25 -10 0 -5 8 -10
18 -10 17 0 175 -60 223 -86 14 -7 29 -11 32 -7 4 3 9 -2 13 -11 3 -9 11 -16
17 -16 18 0 87 -33 87 -42 0 -4 9 -8 20 -8 11 0 20 -4 20 -10 0 -5 8 -10 19
-10 10 0 24 -7 31 -15 7 -8 21 -15 31 -15 11 0 19 -4 19 -10 0 -5 7 -10 15
-10 8 0 15 -4 15 -9 0 -5 14 -14 31 -22 18 -7 45 -24 62 -38 17 -14 32 -25 34
-23 2 1 29 -15 60 -35 31 -21 71 -46 90 -56 18 -9 39 -26 45 -37 7 -11 20 -20
29 -20 9 0 33 -18 52 -39 20 -22 50 -47 67 -56 17 -9 60 -44 94 -78 53 -52 93
-89 161 -146 6 -5 24 -25 40 -45 33 -39 55 -64 130 -147 28 -30 66 -75 86 -99
20 -25 57 -71 83 -102 25 -32 47 -63 48 -70 2 -7 9 -19 16 -27 14 -14 57 -77
78 -112 6 -11 18 -27 26 -36 9 -10 19 -28 22 -40 4 -13 12 -23 17 -23 5 0 9
-9 9 -19 0 -11 4 -22 9 -25 5 -3 20 -28 34 -54 14 -26 34 -64 44 -83 11 -19
32 -63 48 -99 43 -101 59 -135 68 -138 4 -2 7 -17 7 -33 0 -16 5 -29 10 -29 6
0 10 -11 10 -24 0 -13 7 -29 15 -36 8 -7 15 -19 15 -28 0 -21 19 -80 36 -114
8 -14 14 -38 14 -52 0 -14 5 -26 10 -26 6 0 10 -15 10 -34 0 -19 5 -38 10 -41
6 -3 10 -23 10 -43 0 -20 7 -46 15 -56 8 -11 15 -37 15 -57 0 -21 5 -41 10
-44 6 -3 10 -28 10 -54 0 -26 7 -56 15 -67 9 -12 14 -43 15 -85 0 -36 4 -69 9
-75 33 -34 29 -818 -4 -919 -7 -22 -13 -61 -13 -87 -1 -27 -6 -57 -12 -67 -5
-11 -10 -40 -10 -65 0 -25 -4 -46 -10 -46 -5 0 -10 -17 -10 -37 0 -21 -7 -51
-15 -67 -8 -15 -13 -32 -10 -37 3 -4 -1 -25 -10 -45 -8 -20 -15 -46 -15 -58 0
-12 -7 -32 -16 -44 -8 -12 -12 -26 -9 -32 3 -5 -1 -20 -10 -34 -9 -13 -15 -30
-14 -38 2 -13 -5 -32 -47 -125 -13 -28 -24 -59 -24 -68 0 -8 -5 -25 -12 -38
-6 -12 -14 -29 -18 -37 -3 -8 -14 -28 -23 -45 -9 -16 -32 -66 -53 -110 -20
-44 -39 -82 -43 -85 -3 -3 -21 -35 -39 -71 -17 -36 -41 -75 -52 -87 -11 -12
-20 -28 -20 -35 0 -8 -7 -20 -15 -27 -8 -7 -15 -18 -15 -24 0 -7 -11 -23 -25
-36 -14 -13 -25 -29 -25 -36 0 -7 -13 -29 -30 -47 -16 -19 -30 -38 -30 -41 0
-4 -9 -17 -21 -29 -12 -12 -31 -38 -44 -57 -12 -19 -39 -53 -58 -75 -54 -60
-57 -64 -57 -71 0 -8 -50 -61 -119 -127 -24 -23 -82 -82 -130 -130 -47 -49
-112 -106 -143 -128 -31 -21 -63 -47 -70 -58 -7 -10 -34 -32 -59 -49 -25 -17
-52 -38 -59 -47 -7 -8 -18 -15 -24 -15 -6 0 -25 -11 -41 -25 -42 -35 -95 -72
-125 -87 -14 -7 -31 -18 -38 -25 -7 -7 -19 -13 -26 -13 -7 0 -21 -8 -32 -18
-22 -20 -87 -55 -254 -137 -63 -31 -123 -61 -132 -66 -10 -5 -25 -9 -33 -9 -8
0 -15 -4 -15 -10 0 -5 -7 -10 -15 -10 -13 0 -65 -20 -107 -41 -10 -5 -24 -9
-32 -9 -7 0 -39 -11 -70 -25 -31 -14 -67 -25 -81 -25 -13 0 -27 -4 -30 -10 -3
-5 -21 -10 -39 -10 -19 0 -39 -7 -46 -15 -7 -9 -29 -15 -51 -15 -21 0 -41 -4
-44 -10 -3 -5 -28 -10 -55 -10 -27 0 -50 -5 -52 -11 -2 -7 -28 -13 -56 -15
-29 -1 -58 -7 -65 -12 -12 -10 -59 -16 -272 -31 -66 -5 -161 -14 -212 -21 -74
-10 -115 -10 -205 0 -62 7 -164 14 -227 16 -63 2 -119 8 -125 14 -5 5 -42 10
-81 10 -42 0 -76 5 -83 12 -7 7 -40 16 -75 20 -123 16 -142 20 -152 29 -5 5
-26 9 -46 9 -20 0 -42 7 -49 15 -7 8 -24 15 -37 15 -29 0 -143 35 -186 56 -16
8 -37 14 -48 14 -10 0 -19 5 -19 10 0 6 -8 10 -19 10 -10 0 -32 7 -47 15 -16
8 -37 15 -46 15 -9 0 -20 5 -23 11 -4 6 -13 8 -20 6 -6 -3 -19 3 -28 13 -9 11
-34 24 -57 30 -23 6 -58 21 -78 32 -20 12 -62 34 -92 50 -30 16 -64 34 -75 41
-12 7 -62 36 -112 65 -51 30 -97 60 -104 68 -6 8 -17 14 -24 14 -6 0 -20 9
-31 21 -10 12 -32 28 -48 36 -16 8 -39 24 -50 35 -12 11 -32 26 -46 33 -14 7
-47 34 -74 59 -27 25 -53 46 -59 46 -5 0 -58 50 -118 110 -60 61 -113 110
-118 110 -6 0 -16 10 -22 22 -7 13 -47 58 -91 101 -43 43 -78 84 -78 91 0 8
-20 33 -45 57 -25 24 -51 53 -58 65 -28 48 -86 131 -101 143 -9 7 -16 19 -16
26 0 6 -9 20 -20 30 -11 10 -20 24 -20 30 0 7 -6 18 -14 24 -8 7 -27 35 -41
63 -37 70 -49 92 -55 98 -3 3 -10 14 -16 25 -6 11 -23 42 -37 68 -15 26 -27
53 -27 59 0 6 -6 19 -13 27 -18 21 -57 119 -57 141 0 10 -7 20 -15 24 -8 3
-15 15 -15 26 0 11 -4 28 -9 38 -5 9 -14 31 -21 47 -7 17 -18 44 -24 60 -25
60 -38 100 -40 121 0 11 -7 28 -14 37 -8 9 -11 24 -8 35 3 10 -1 27 -9 38 -8
10 -15 33 -15 49 0 17 -4 35 -9 40 -9 9 -17 43 -42 170 -5 28 -12 82 -16 120
-3 39 -9 73 -14 76 -27 17 -51 637 -29 738 7 29 13 96 14 147 0 59 6 98 14
106 7 7 12 37 12 70 0 32 4 58 10 58 6 0 10 23 10 51 0 28 5 60 12 72 6 12 11
35 10 50 -1 15 4 38 13 50 8 12 15 36 15 54 0 18 4 41 9 51 14 28 33 85 38
115 3 15 9 30 14 33 5 3 9 15 9 28 0 12 4 26 8 32 5 5 17 32 26 59 10 28 22
61 28 75 21 48 36 85 46 110 18 48 56 125 73 150 9 14 17 28 18 33 1 7 13 30
63 122 15 28 32 62 38 77 6 14 18 29 26 32 8 3 14 12 14 19 0 8 9 22 20 32 11
10 20 23 20 28 0 6 11 25 25 43 14 18 25 37 25 43 0 5 16 26 35 47 19 20 35
41 35 47 0 5 18 27 40 49 21 22 42 49 46 61 4 12 26 39 49 59 23 20 61 63 86
95 47 63 215 233 230 233 4 0 32 23 61 51 29 29 69 62 88 74 19 13 48 37 64
54 17 17 38 31 47 31 10 0 26 11 36 24 10 13 32 30 48 39 17 8 39 24 49 36 11
12 25 21 32 21 7 0 26 11 42 25 17 14 35 25 41 25 6 0 11 5 11 10 0 6 8 10 18
10 10 0 27 8 38 18 10 10 39 28 64 41 25 12 59 31 75 41 17 10 38 19 48 19 9
1 17 5 17 9 0 9 70 42 88 42 7 0 12 4 12 9 0 6 25 18 55 27 30 10 55 21 55 26
0 4 11 8 24 8 13 0 29 7 36 15 7 8 16 12 21 9 5 -3 24 2 41 12 61 32 68 34 92
34 13 0 26 4 28 9 2 6 19 13 38 16 19 3 39 10 44 16 6 5 25 9 43 9 18 0 33 4
33 9 0 9 76 29 145 38 22 3 44 9 49 14 6 5 31 9 57 9 31 0 51 5 60 16 10 13
25 15 65 11 36 -4 58 -1 71 8 12 10 48 15 108 15 50 1 99 5 110 10 24 11 560
5 690 -7z m2233 -120 c57 -42 122 -105 138 -135 20 -38 19 -157 -1 -164 -8 -4
-15 -12 -15 -20 0 -7 -10 -19 -22 -25 -13 -7 -25 -15 -28 -18 -15 -18 -73 -41
-89 -36 -29 9 -51 -44 -51 -120 0 -69 -20 -99 -62 -93 -22 3 -23 7 -26 92 -2
53 1 93 8 100 19 19 11 62 -19 90 l-29 28 -27 -24 c-15 -12 -38 -40 -51 -60
-29 -46 -66 -58 -95 -32 -28 26 -17 60 37 112 24 23 44 49 44 57 0 7 25 38 55
67 30 29 55 58 55 64 0 11 125 144 135 144 4 0 23 -12 43 -27z m-5312 -160
c18 -24 17 -29 -3 -53 -10 -11 -30 -20 -45 -20 -37 0 -65 -16 -110 -63 -27
-29 -37 -48 -40 -80 -5 -65 5 -113 30 -141 12 -15 22 -31 22 -36 0 -6 9 -10
19 -10 10 0 21 -7 25 -15 3 -8 12 -15 21 -15 8 0 15 -4 15 -10 0 -6 28 -10 65
-10 64 0 65 0 115 49 29 29 50 58 50 70 0 57 66 95 90 52 14 -27 -3 -107 -29
-135 -11 -12 -21 -27 -21 -32 0 -13 -87 -74 -105 -74 -8 0 -15 -4 -15 -10 0
-13 -154 -13 -178 -1 -9 5 -33 16 -52 25 -41 18 -89 66 -121 121 -20 35 -22
52 -20 130 1 53 8 103 17 122 18 40 113 133 135 133 9 0 22 6 28 14 16 19 89
12 107 -11z m5791 -280 c20 -21 40 -37 45 -35 4 1 8 -5 8 -14 0 -8 5 -12 10
-9 6 3 10 -1 10 -9 0 -9 5 -16 10 -16 6 0 10 -9 10 -20 0 -11 7 -23 15 -26 8
-4 15 -14 15 -24 0 -11 5 -22 10 -25 6 -3 10 -37 10 -75 0 -54 -5 -79 -27
-120 -31 -59 -98 -130 -123 -130 -10 0 -21 -7 -24 -16 -3 -9 -12 -14 -20 -11
-7 3 -26 -1 -41 -9 -31 -16 -91 -19 -100 -4 -3 6 -15 10 -26 10 -30 0 -67 26
-151 109 -50 48 -78 83 -78 97 0 21 122 154 141 154 5 0 9 4 9 9 0 5 8 12 18
15 10 3 56 42 102 86 46 44 90 80 97 80 7 0 13 5 13 10 0 21 32 8 67 -27z
m-6544 -510 c9 -21 9 -27 -1 -31 -6 -2 -12 -10 -12 -18 0 -8 -4 -14 -9 -14 -5
0 -13 -10 -17 -22 -3 -12 -13 -28 -20 -36 -20 -19 0 -51 36 -58 16 -4 31 -12
34 -20 3 -8 12 -14 20 -14 8 0 23 -11 34 -25 11 -14 29 -25 41 -25 12 0 21 -4
21 -10 0 -5 7 -10 15 -10 8 0 15 -3 15 -8 0 -7 30 -25 63 -38 9 -3 17 -10 17
-15 0 -5 5 -9 11 -9 17 0 48 -43 49 -67 0 -25 -47 -63 -58 -47 -4 6 -24 20
-44 33 -21 12 -38 27 -38 32 0 5 -8 9 -18 9 -10 0 -28 9 -40 20 -12 11 -28 20
-37 20 -9 0 -18 6 -21 13 -3 8 -20 20 -39 27 -19 8 -35 17 -35 22 0 4 -6 8
-13 8 -7 0 -24 11 -39 25 -35 32 -40 32 -63 -7 -10 -18 -21 -35 -24 -38 -3 -3
-14 -18 -23 -35 -12 -22 -24 -30 -45 -30 -26 0 -28 3 -31 45 -2 37 2 50 23 72
14 15 25 34 25 43 0 8 4 15 9 15 5 0 16 15 25 33 33 63 64 111 75 115 6 2 11
10 11 18 0 25 34 54 62 54 21 0 32 -7 41 -27z m6980 -44 c15 -17 16 -23 5 -37
-25 -33 -58 -61 -98 -83 -22 -12 -40 -26 -40 -31 0 -4 -5 -8 -11 -8 -6 0 -25
-11 -43 -25 -18 -14 -36 -25 -40 -25 -4 0 -12 -5 -19 -10 -7 -6 -45 -33 -85
-60 -84 -57 -126 -65 -143 -26 -13 27 2 66 25 66 7 0 25 11 40 25 14 13 26 22
26 19 0 -3 15 6 33 20 19 15 38 26 44 26 5 0 20 11 33 25 13 14 29 25 37 25 7
0 13 3 13 8 0 4 17 16 37 27 21 11 47 30 59 43 12 12 28 22 37 22 9 0 19 5 22
10 11 17 50 11 68 -11z m191 -325 c18 -17 22 -70 6 -76 -6 -2 -12 -13 -13 -26
0 -12 -7 -22 -14 -22 -7 0 -13 -9 -13 -19 0 -11 -4 -23 -10 -26 -5 -3 -10 -14
-10 -25 0 -10 -7 -20 -15 -24 -8 -3 -12 -12 -9 -21 4 -8 -1 -17 -10 -21 -9 -3
-16 -14 -17 -23 0 -9 -9 -29 -20 -46 -10 -16 -21 -37 -25 -45 -3 -8 -14 -32
-25 -53 -10 -21 -16 -37 -11 -35 4 3 22 11 40 18 17 8 32 18 32 22 0 4 8 8 19
8 10 0 24 7 31 15 7 8 19 15 26 15 8 0 23 5 34 10 11 6 29 15 40 20 11 6 26
10 34 10 8 0 16 7 20 15 9 25 52 18 76 -12 l22 -28 -39 -32 c-21 -18 -42 -33
-46 -33 -5 0 -41 -16 -81 -35 -40 -19 -78 -35 -83 -35 -6 0 -16 -7 -23 -15 -7
-8 -21 -15 -31 -15 -11 0 -19 -4 -19 -10 0 -5 -6 -10 -14 -10 -7 0 -43 -15
-79 -34 -60 -30 -68 -32 -87 -19 -21 15 -26 51 -11 81 5 9 15 31 22 47 8 17
16 32 19 35 3 3 14 23 25 45 10 22 25 48 33 57 8 9 11 22 7 27 -3 6 -2 11 2
11 9 0 43 69 43 87 0 6 7 14 16 17 8 3 12 11 8 17 -4 7 1 18 11 26 15 10 15
13 4 13 -8 0 -24 -7 -35 -15 -10 -8 -27 -15 -36 -15 -10 0 -18 -4 -18 -10 0
-5 -6 -10 -14 -10 -17 0 -80 -32 -84 -42 -2 -5 -12 -8 -22 -8 -10 0 -22 -4
-25 -10 -3 -5 -14 -10 -25 -10 -10 0 -20 -7 -24 -15 -9 -24 -49 -17 -70 11
-18 26 -18 26 15 60 18 19 41 34 51 34 10 0 18 5 18 10 0 6 9 10 20 10 11 0
20 5 20 10 0 6 6 10 13 10 6 0 48 18 91 40 44 22 86 40 93 40 7 0 13 5 13 10
0 6 11 10 24 10 13 0 26 4 28 8 4 10 58 39 75 41 6 1 19 -6 27 -15z m-7525
-208 c16 -19 10 -106 -6 -106 -7 0 -13 -7 -13 -15 0 -8 -4 -23 -9 -33 -5 -9
-17 -35 -26 -57 -9 -22 -20 -48 -25 -57 -14 -25 -13 -28 10 -28 11 0 23 -7 26
-15 4 -8 17 -15 29 -15 13 0 25 -5 27 -11 7 -20 35 2 51 40 9 21 17 41 17 45
0 4 9 27 20 50 15 34 26 45 49 48 20 3 32 -1 40 -15 14 -21 5 -77 -11 -77 -6
0 -8 -6 -5 -14 3 -8 -1 -20 -9 -26 -8 -7 -14 -23 -14 -36 0 -12 -4 -26 -10
-29 -24 -15 -9 -40 30 -53 22 -6 46 -12 54 -12 8 0 17 -7 20 -16 9 -24 26 -6
26 27 0 16 5 29 10 29 6 0 10 8 10 19 0 10 7 24 15 31 8 7 15 21 15 31 0 10 5
21 10 24 6 3 10 14 10 24 0 24 34 67 58 73 11 3 29 -2 40 -11 20 -15 21 -18 6
-51 -9 -19 -20 -44 -24 -55 -4 -11 -15 -35 -23 -54 -8 -19 -13 -40 -10 -46 2
-7 -3 -15 -11 -18 -9 -4 -16 -15 -16 -26 0 -11 -4 -23 -10 -26 -5 -3 -10 -13
-10 -21 0 -21 -41 -74 -57 -74 -7 0 -21 4 -31 9 -9 5 -24 12 -32 15 -8 3 -22
10 -30 14 -42 24 -61 32 -79 32 -10 0 -24 7 -31 15 -7 8 -16 13 -20 10 -5 -3
-15 2 -23 10 -9 8 -23 15 -31 15 -16 0 -23 3 -84 33 -19 9 -40 17 -48 17 -8 0
-14 5 -14 10 0 6 -6 10 -13 10 -8 0 -24 11 -37 25 -20 21 -21 25 -6 31 9 3 16
17 16 30 0 13 4 32 9 42 5 9 12 24 15 32 3 8 10 22 14 30 24 42 32 61 32 79 0
11 5 23 10 26 6 3 10 15 10 25 0 18 45 59 66 60 6 0 17 -6 23 -14z m7726 -526
c3 -5 15 -10 25 -10 10 0 23 -6 27 -13 4 -6 21 -19 37 -27 16 -8 31 -21 34
-30 3 -8 15 -29 27 -45 48 -65 49 -215 1 -261 -21 -20 -24 -21 -43 -5 -30 23
-38 58 -19 86 20 31 20 69 1 85 -8 7 -15 21 -15 31 0 11 -4 19 -10 19 -5 0
-10 6 -10 14 0 13 -29 37 -79 63 -28 15 -141 17 -141 3 0 -5 -8 -10 -17 -10
-22 0 -107 -85 -99 -98 3 -5 -1 -15 -9 -22 -19 -16 -19 -69 0 -93 7 -11 12
-24 9 -31 -3 -7 5 -21 16 -31 35 -32 148 -14 121 19 -8 10 -15 61 -12 93 2 21
39 25 66 7 20 -13 25 -25 25 -55 0 -22 5 -39 11 -39 6 0 9 -19 7 -47 -3 -43
-6 -48 -33 -56 -16 -5 -38 -13 -47 -18 -10 -5 -34 -9 -53 -9 -19 0 -35 -4 -35
-9 0 -5 -10 -11 -22 -14 -35 -10 -138 104 -138 152 0 11 -4 23 -10 26 -5 3
-10 28 -10 55 0 27 5 52 10 55 6 3 10 19 10 35 0 44 101 153 164 176 39 15
203 17 211 4z m-7774 -128 c19 -10 39 -29 45 -41 7 -13 17 -28 23 -34 17 -17
14 -133 -4 -161 -9 -13 -13 -29 -10 -37 7 -19 53 -39 88 -39 40 0 87 -35 82
-61 -7 -36 -55 -62 -70 -39 -3 6 -24 10 -45 10 -21 0 -42 5 -45 10 -3 6 -23
10 -44 10 -20 0 -46 7 -57 15 -10 8 -35 15 -55 15 -19 0 -39 4 -45 9 -5 5 -27
11 -49 14 -71 10 -110 19 -122 29 -15 12 -17 94 -3 103 6 3 10 24 10 45 0 21
5 42 10 45 6 3 10 14 10 24 0 21 78 98 105 103 48 9 144 -2 176 -20z m7877
-962 c32 -43 28 -82 -12 -124 -31 -31 -39 -35 -76 -30 -59 7 -80 32 -80 96 0
69 18 87 91 87 50 1 57 -2 77 -29z m-7947 -42 c23 -25 29 -42 29 -75 0 -65
-21 -83 -95 -83 -74 1 -97 23 -91 90 8 93 98 132 157 68z m7639 -777 c-1 -33
-7 -64 -15 -75 -8 -11 -15 -40 -15 -65 0 -25 -7 -55 -15 -65 -21 -27 -10 -36
44 -36 26 0 52 -5 58 -11 17 -17 42 -4 37 18 -3 10 2 32 10 48 9 17 16 46 16
66 0 49 19 72 55 67 29 -3 30 -5 33 -57 2 -32 -3 -66 -11 -85 -8 -17 -13 -42
-12 -56 2 -14 4 -28 4 -32 1 -5 23 -8 50 -8 28 0 53 -4 56 -10 3 -5 13 -10 21
-10 10 0 14 13 14 49 0 27 6 53 13 59 6 6 13 34 15 64 2 29 7 55 13 56 5 2 9
12 9 21 0 10 10 27 23 39 24 22 24 22 46 2 19 -16 22 -26 17 -52 -4 -18 -10
-57 -14 -86 -5 -28 -13 -57 -20 -64 -7 -7 -12 -30 -12 -53 0 -23 -4 -45 -9
-50 -5 -6 -11 -23 -13 -40 -3 -29 -4 -30 -67 -33 -36 -2 -69 2 -74 7 -6 6 -31
11 -55 11 -24 0 -53 5 -65 12 -12 6 -38 11 -58 9 -22 -1 -43 4 -52 14 -10 9
-34 15 -66 15 -28 0 -51 5 -51 10 0 6 -11 10 -25 10 -33 0 -44 54 -21 113 9
24 16 61 16 84 0 23 4 44 9 47 4 3 11 27 13 54 3 31 13 58 28 74 21 25 24 26
46 11 21 -13 24 -23 24 -72z m-7522 -37 c21 -9 48 -21 62 -27 33 -15 120 -98
120 -114 0 -7 5 -13 10 -13 6 0 10 -15 10 -34 0 -18 5 -47 11 -64 8 -24 7 -37
-6 -61 -9 -18 -13 -36 -9 -42 8 -14 -35 -59 -57 -59 -10 0 -21 5 -24 11 -12
19 -9 77 5 104 11 21 12 30 2 45 -7 11 -12 30 -12 42 0 28 -79 108 -106 108
-11 0 -24 4 -29 9 -15 14 -71 17 -86 5 -8 -6 -26 -14 -42 -18 -31 -7 -97 -67
-97 -89 0 -8 -7 -20 -15 -27 -22 -18 -18 -71 8 -121 23 -42 25 -44 75 -47 l51
-3 3 72 c3 63 5 73 23 75 33 5 65 -34 65 -78 0 -21 6 -49 14 -61 19 -30 5 -65
-31 -73 -15 -4 -33 -10 -39 -15 -6 -5 -26 -10 -45 -12 -19 -2 -47 -9 -64 -16
-28 -12 -31 -10 -87 48 -44 46 -58 67 -58 90 0 16 -4 33 -10 36 -5 3 -10 31
-10 61 0 30 5 54 10 54 6 0 10 9 10 20 0 59 121 180 180 180 9 0 20 4 26 9 5
6 29 11 54 14 25 2 47 4 48 5 2 1 20 -5 40 -14z m7492 -524 c0 -5 8 -10 17
-10 19 0 63 -38 63 -55 0 -43 48 -83 65 -55 3 6 23 10 43 10 20 0 50 7 66 15
15 8 32 15 37 15 15 0 49 -43 49 -62 0 -23 -77 -58 -129 -58 -22 0 -43 -4 -46
-10 -3 -5 -19 -10 -34 -10 -35 0 -58 -26 -57 -65 1 -24 6 -31 26 -33 14 -2 29
-8 35 -13 5 -5 17 -9 26 -9 33 0 79 -34 79 -58 0 -53 -52 -64 -124 -27 -15 8
-39 15 -52 15 -13 0 -24 5 -24 10 0 6 -9 10 -20 10 -20 0 -27 2 -88 33 -19 9
-42 17 -52 17 -10 0 -22 5 -25 10 -3 6 -15 10 -25 10 -10 0 -25 7 -34 15 -8 8
-25 15 -39 15 -13 0 -32 9 -43 21 -15 16 -16 24 -6 39 7 11 12 31 12 45 0 14
6 28 14 31 8 3 12 12 9 20 -6 17 34 81 74 118 25 23 36 26 105 26 45 0 78 -4
78 -10z m-7166 -114 c9 -19 16 -39 16 -44 0 -6 11 -32 25 -58 29 -55 35 -141
10 -150 -8 -4 -15 -14 -15 -23 0 -16 -43 -55 -87 -78 -29 -15 -105 -17 -118
-4 -6 5 -23 11 -39 13 -23 2 -32 -3 -46 -28 -10 -17 -30 -43 -44 -57 -14 -14
-26 -33 -26 -41 0 -19 -48 -32 -69 -19 -30 19 -25 65 14 107 19 22 35 44 35
50 0 5 12 22 26 37 29 31 35 80 11 103 -17 18 -37 21 -37 7 0 -5 -15 -13 -32
-16 -18 -4 -38 -12 -45 -17 -6 -5 -33 -8 -60 -6 -47 3 -48 4 -45 33 4 37 19
55 43 55 11 0 27 4 37 9 9 4 35 16 57 26 22 9 48 21 57 26 10 5 26 9 37 9 10
0 24 7 31 15 7 8 21 15 31 15 11 0 19 5 19 10 0 6 10 10 23 10 12 0 30 7 40
15 11 7 25 11 33 8 8 -3 17 2 20 11 4 11 18 16 44 16 33 0 40 -4 54 -34z
m6781 -501 c22 -8 75 -15 117 -15 42 0 80 -4 83 -10 3 -6 48 -10 99 -10 70 0
97 -4 106 -15 7 -8 22 -13 34 -11 28 5 46 -11 46 -40 0 -45 -73 -70 -114 -39
-16 12 -21 12 -35 -2 -9 -9 -16 -20 -16 -24 0 -5 -7 -17 -16 -28 -10 -10 -20
-28 -23 -39 -4 -11 -13 -26 -21 -32 -8 -7 -15 -21 -15 -31 0 -11 -4 -19 -10
-19 -17 0 -11 -26 13 -51 60 -64 57 -119 -8 -119 -19 0 -35 5 -35 10 0 12 -4
18 -57 80 -21 25 -52 63 -68 85 -16 21 -37 47 -47 57 -10 10 -18 23 -18 29 0
6 -17 28 -37 49 -63 65 -83 98 -83 138 0 52 31 63 105 37z m-6615 -34 c71 -12
147 -66 170 -122 7 -16 16 -29 21 -29 5 0 12 -18 15 -40 4 -22 10 -40 15 -40
12 0 11 -107 -1 -115 -5 -3 -10 -14 -10 -24 0 -10 -7 -24 -15 -31 -8 -7 -15
-18 -15 -26 0 -16 -80 -93 -96 -94 -6 0 -17 -7 -24 -15 -7 -9 -19 -14 -26 -11
-7 3 -18 -2 -24 -10 -18 -20 -166 -20 -174 1 -3 8 -11 12 -19 9 -17 -6 -137
108 -137 131 0 8 -4 15 -10 15 -5 0 -10 11 -10 24 0 14 -4 28 -10 31 -5 3 -10
35 -10 70 0 35 5 67 10 70 6 3 10 17 10 31 0 13 4 24 9 24 5 0 14 13 20 29 12
28 61 71 81 71 6 0 13 6 16 14 3 8 11 13 18 10 7 -3 19 2 26 11 7 8 27 15 46
15 18 0 36 5 39 11 4 6 14 7 24 4 9 -4 36 -10 61 -14z m6385 -371 c3 -5 3 -25
-1 -45 -4 -24 -12 -35 -24 -35 -53 0 -139 -85 -141 -140 -5 -100 2 -122 45
-165 77 -78 145 -96 218 -59 37 18 98 79 98 98 0 6 4 16 9 22 5 5 11 27 13 49
2 33 7 41 26 43 13 2 33 -5 44 -14 20 -19 20 -28 5 -116 -5 -28 -36 -77 -49
-78 -5 0 -8 -6 -8 -13 0 -16 -82 -77 -103 -77 -9 0 -17 -5 -19 -11 -7 -20
-129 -22 -173 -2 -76 33 -129 71 -152 108 -49 80 -52 93 -49 177 2 46 11 95
19 111 23 43 116 137 137 137 10 0 22 5 25 10 8 13 72 13 80 0z m-5930 -240
c3 -5 22 -10 41 -10 19 0 34 -3 34 -8 0 -4 16 -16 35 -26 40 -22 97 -81 87
-91 -4 -3 1 -11 11 -16 9 -6 17 -20 17 -32 0 -12 7 -30 15 -41 15 -19 10 -112
-6 -130 -5 -6 -9 -20 -9 -33 0 -13 -4 -23 -10 -23 -5 0 -10 -7 -10 -15 0 -19
-72 -94 -107 -112 -14 -7 -33 -13 -43 -13 -10 0 -20 -7 -24 -15 -8 -21 -134
-21 -162 0 -10 8 -26 15 -36 15 -22 0 -128 102 -128 123 0 9 -4 17 -10 17 -5
0 -10 11 -10 24 0 13 -7 29 -15 36 -10 8 -15 30 -15 65 0 35 5 57 15 65 8 7
15 23 15 35 0 13 4 25 9 27 4 2 20 22 35 46 15 24 35 46 44 49 9 4 30 17 45
30 17 14 42 23 62 23 19 0 37 5 40 10 3 6 21 10 40 10 19 0 37 -4 40 -10z
m5219 -429 c16 -17 18 -39 17 -164 -2 -140 -1 -146 28 -208 16 -36 40 -74 51
-84 12 -11 29 -33 37 -48 16 -33 6 -52 -36 -68 -19 -8 -29 -5 -48 12 -12 13
-23 29 -23 36 0 8 -14 26 -30 40 -17 14 -28 28 -25 31 9 9 -54 42 -80 42 -16
0 -25 6 -25 15 0 9 -9 15 -24 15 -14 0 -28 5 -31 10 -3 6 -15 10 -26 10 -11 0
-44 11 -72 24 -29 13 -59 26 -68 29 -20 6 -29 49 -17 71 5 9 19 16 31 16 22 0
91 -22 127 -40 11 -5 29 -14 40 -20 11 -5 28 -10 39 -10 10 0 24 -7 31 -15 7
-8 21 -15 30 -15 10 0 21 -6 23 -12 4 -9 6 -8 6 2 0 8 -5 23 -12 32 -9 11 -14
62 -16 157 -2 139 -2 141 21 150 32 13 33 13 52 -8z m-4660 -46 c10 -27 6 -59
-9 -79 -10 -13 -15 -43 -15 -86 0 -36 -4 -70 -9 -75 -6 -6 -12 -43 -15 -84 -3
-41 -10 -79 -16 -85 -16 -16 -12 -26 10 -26 11 0 20 5 20 10 0 6 6 10 14 10 7
0 19 7 26 15 7 9 19 14 26 11 8 -3 17 0 21 7 5 7 34 25 66 42 31 16 57 33 57
37 0 4 9 8 19 8 11 0 23 5 26 10 3 6 15 10 26 10 10 0 19 4 19 9 0 10 56 41
72 41 15 0 37 -26 43 -52 5 -19 0 -29 -19 -44 -14 -10 -26 -26 -26 -35 0 -8
-11 -26 -25 -39 -14 -13 -25 -29 -25 -35 0 -6 -11 -22 -25 -35 -14 -13 -25
-29 -25 -35 0 -6 -16 -28 -35 -49 -19 -21 -35 -43 -35 -48 0 -5 -11 -20 -24
-33 -14 -13 -26 -32 -28 -42 -2 -14 -13 -18 -43 -18 -39 0 -40 1 -43 38 -3 31
1 42 22 58 14 11 26 26 26 33 0 7 11 25 25 40 14 15 25 31 25 37 0 5 11 22 24
36 27 29 24 54 -3 29 -10 -9 -24 -16 -32 -16 -9 0 -24 -8 -35 -18 -10 -10 -27
-21 -36 -25 -10 -3 -18 -11 -18 -17 0 -5 -11 -10 -24 -10 -13 0 -29 -7 -36
-15 -7 -8 -16 -12 -21 -9 -5 3 -12 -2 -15 -10 -4 -9 -18 -16 -34 -16 -53 0
-60 8 -60 65 0 30 5 57 10 60 6 3 10 36 10 73 0 40 6 79 15 96 8 15 14 42 14
60 -1 21 -3 24 -6 10 -2 -12 -13 -30 -24 -40 -10 -9 -19 -22 -19 -28 0 -6 -11
-23 -24 -37 -13 -14 -31 -39 -39 -56 -9 -16 -23 -35 -31 -42 -9 -7 -13 -18 -9
-24 3 -6 1 -7 -5 -3 -7 4 -12 2 -12 -3 0 -6 -16 -11 -35 -11 -29 0 -35 4 -37
23 -2 41 2 61 17 70 8 4 15 14 15 20 0 7 13 28 30 47 16 19 29 40 30 46 0 6
11 21 25 34 14 13 25 29 25 35 0 6 11 22 25 35 14 13 25 30 25 38 0 8 11 25
25 38 14 13 25 30 25 38 0 8 12 24 26 35 24 19 29 19 54 6 15 -8 30 -22 34
-30z m4082 -376 c16 -17 41 -37 56 -45 15 -8 50 -37 77 -64 28 -28 55 -50 60
-50 6 0 33 -21 60 -47 28 -27 68 -59 90 -73 47 -28 55 -64 21 -93 -28 -24 -37
-22 -86 18 -40 33 -78 45 -86 27 -1 -5 -32 -23 -68 -40 -96 -47 -97 -49 -96
-112 2 -64 -6 -80 -43 -80 -43 0 -51 16 -51 110 0 47 -4 90 -9 95 -6 6 -12 64
-15 130 -2 66 -7 140 -11 164 -15 88 42 122 101 60z m-3422 -41 c7 -21 4 -38
-20 -85 -16 -32 -33 -61 -37 -64 -5 -4 -10 -18 -10 -32 -1 -14 -5 -23 -9 -21
-4 3 -10 -7 -14 -21 -3 -14 -10 -25 -15 -25 -5 0 -9 -6 -9 -12 0 -7 -13 -38
-29 -69 -76 -151 -94 -170 -136 -143 -29 19 -32 45 -9 68 8 9 13 20 9 25 -3 5
-1 12 5 16 5 3 17 23 26 43 8 20 20 44 25 52 4 8 16 31 25 50 35 76 49 100 56
100 5 0 8 14 8 30 0 17 4 30 9 30 5 0 12 11 15 25 16 62 92 85 110 33z m291
-133 c15 -16 25 -37 25 -55 0 -17 5 -30 10 -30 6 0 10 -11 10 -24 0 -13 7 -37
15 -52 8 -16 15 -37 15 -46 0 -9 5 -20 10 -23 6 -3 10 -19 10 -35 0 -16 5 -32
10 -35 6 -3 10 -16 10 -28 0 -12 7 -31 15 -41 8 -11 15 -28 15 -39 0 -10 5
-15 10 -12 6 3 10 14 10 23 0 9 7 30 15 46 8 15 15 39 15 52 0 13 5 24 10 24
6 0 10 13 10 29 0 16 6 34 14 40 8 7 12 20 9 31 -6 21 32 77 58 85 28 9 59
-16 59 -47 0 -15 -4 -30 -10 -33 -5 -3 -10 -19 -10 -35 0 -15 -7 -30 -15 -34
-9 -3 -15 -18 -15 -35 0 -16 -4 -33 -10 -36 -5 -3 -10 -19 -10 -34 0 -15 -5
-32 -11 -38 -7 -7 -13 -24 -15 -40 -1 -15 -8 -29 -13 -31 -6 -2 -11 -19 -11
-38 0 -19 -4 -34 -10 -34 -5 0 -10 -14 -10 -30 0 -18 -6 -33 -15 -36 -8 -4
-15 -12 -15 -20 0 -9 -11 -14 -28 -14 -30 0 -62 40 -62 78 0 12 -4 24 -10 27
-5 3 -10 19 -10 35 0 16 -4 32 -10 35 -5 3 -10 14 -10 23 0 9 -7 30 -15 46 -8
15 -15 39 -15 52 0 13 -4 24 -10 24 -5 0 -10 13 -10 28 0 16 -7 37 -15 48 -8
10 -15 29 -15 42 0 12 -4 22 -10 22 -8 0 -13 -29 -9 -57 0 -3 -6 -10 -15 -15
-9 -5 -16 -22 -16 -38 0 -16 -4 -32 -10 -35 -5 -3 -10 -20 -10 -36 0 -17 -6
-32 -15 -35 -8 -4 -15 -17 -15 -30 0 -13 -4 -32 -9 -42 -5 -9 -12 -25 -15 -34
-5 -18 -39 -24 -70 -12 -18 7 -23 69 -6 79 6 3 10 17 10 30 0 13 7 30 15 39 8
8 15 28 15 45 0 17 5 31 10 31 6 0 10 15 10 34 0 18 7 39 15 46 9 7 14 19 11
26 -2 6 2 20 9 31 8 10 15 30 15 45 0 15 4 29 9 32 5 3 12 21 15 40 10 52 50
61 91 21z m2604 -35 c10 -5 31 -11 46 -14 16 -3 31 -9 34 -13 3 -5 18 -16 33
-26 15 -9 35 -32 44 -49 9 -18 23 -38 30 -46 8 -7 14 -23 14 -36 0 -12 4 -26
9 -31 15 -15 17 -148 3 -153 -7 -2 -12 -12 -12 -22 0 -9 -7 -23 -15 -30 -8 -7
-15 -18 -15 -24 0 -17 -53 -66 -72 -66 -9 0 -18 -7 -22 -15 -3 -8 -14 -15 -25
-15 -11 0 -23 -4 -26 -10 -3 -5 -19 -10 -34 -10 -15 0 -32 -5 -39 -12 -15 -15
-50 -18 -79 -7 -17 6 -23 17 -23 39 0 16 -4 30 -9 30 -9 0 -41 88 -41 113 0 8
-7 20 -15 27 -8 7 -15 25 -15 41 0 15 -4 31 -10 34 -5 3 -10 19 -10 34 0 16
-6 34 -14 41 -8 6 -12 18 -9 26 3 8 -2 25 -11 39 -35 53 -5 115 54 115 17 0
30 5 30 10 0 6 15 10 33 10 18 0 37 4 43 9 5 6 29 11 54 14 25 2 46 4 48 5 2
1 11 -2 21 -8z m-1784 -150 c3 -5 21 -10 38 -10 35 0 64 -16 113 -62 33 -31
35 -58 8 -85 -19 -20 -32 -16 -72 22 -20 19 -47 35 -59 35 -13 0 -23 5 -23 10
0 6 -16 10 -35 10 -19 0 -35 -4 -35 -10 0 -5 -7 -10 -15 -10 -51 0 -125 -78
-125 -132 0 -10 -4 -18 -10 -18 -5 0 -10 -18 -10 -39 0 -22 5 -43 10 -46 6 -3
10 -15 10 -26 0 -23 72 -99 93 -99 8 0 20 -7 27 -15 16 -19 69 -19 97 0 11 8
23 29 25 47 3 18 8 40 12 49 5 12 -1 15 -27 16 -46 1 -87 29 -87 58 0 29 16
35 101 35 56 0 73 -4 94 -22 27 -24 35 -84 13 -106 -6 -6 -10 -34 -9 -62 1
-43 -3 -55 -21 -70 -13 -11 -30 -20 -38 -20 -8 0 -28 -7 -44 -15 -36 -19 -97
-19 -122 0 -10 8 -30 15 -44 15 -16 0 -46 18 -79 47 -55 48 -81 88 -81 123 0
11 -4 20 -9 20 -5 0 -12 22 -16 50 -5 37 -3 55 9 72 9 12 16 35 16 50 0 16 5
28 10 28 6 0 10 9 10 20 0 23 77 100 101 100 9 0 19 7 23 15 3 9 18 15 38 15
18 0 40 5 48 10 20 13 57 13 65 0z m903 -220 c18 -8 32 -22 32 -31 0 -9 7 -22
15 -29 19 -16 19 -34 -2 -68 -25 -40 -54 -62 -85 -62 -35 0 -88 31 -88 52 0 9
-4 20 -10 23 -12 8 -13 55 -1 55 5 0 11 9 14 19 4 18 75 64 87 57 3 -1 20 -9
38 -16z"/>
<path d="M5373 8868 c-6 -7 -12 -34 -14 -60 -4 -43 -2 -48 16 -48 11 -1 31 -7
45 -15 36 -20 93 -19 113 3 22 24 22 75 0 94 -33 28 -144 46 -160 26z"/>
<path d="M5330 8636 c0 -14 -4 -28 -10 -31 -12 -7 -13 -75 -1 -93 9 -15 129
-26 174 -16 15 3 27 11 27 19 0 7 7 18 15 25 21 18 19 34 -11 69 -21 25 -34
31 -64 31 -21 0 -42 5 -45 10 -3 6 -24 10 -46 10 -35 0 -39 -3 -39 -24z"/>
<path d="M6049 8674 c-36 -19 -99 -80 -99 -96 0 -8 -4 -18 -9 -23 -15 -16 -16
-117 -1 -145 23 -43 90 -103 118 -106 15 -2 28 -8 30 -14 5 -15 44 -12 66 5
11 8 28 15 37 15 24 0 99 76 99 100 0 10 5 22 10 25 26 16 -3 175 -32 175 -4
0 -8 6 -8 13 0 7 -20 21 -45 31 -25 11 -45 23 -45 28 0 13 -92 7 -121 -8z"/>
<path d="M2958 8543 c-49 -26 -60 -46 -33 -57 8 -3 12 -11 9 -19 -3 -8 2 -20
11 -27 8 -7 15 -19 15 -26 0 -8 5 -14 10 -14 6 0 10 -10 11 -22 0 -13 3 -17 6
-10 2 6 13 12 23 12 10 0 22 5 25 10 3 6 13 10 22 10 25 0 42 31 43 77 0 36
-5 46 -33 67 -41 31 -49 31 -109 -1z"/>
<path d="M6760 8255 c-19 -19 -40 -35 -46 -35 -6 0 -23 -11 -37 -24 -27 -25
-28 -56 -1 -56 8 0 14 -4 14 -10 0 -5 6 -10 14 -10 7 0 19 -7 26 -15 7 -8 21
-15 31 -15 16 0 19 8 19 59 0 40 5 65 15 75 15 15 21 66 8 65 -5 0 -24 -16
-43 -34z"/>
<path d="M2460 8126 c0 -19 5 -38 10 -41 6 -3 10 -31 10 -61 0 -30 3 -54 6
-54 9 0 67 33 81 47 7 6 22 15 33 18 11 3 20 10 20 14 0 10 -56 51 -70 51 -5
0 -10 5 -10 10 0 6 -4 10 -10 10 -5 0 -19 9 -30 20 -29 29 -40 25 -40 -14z"/>
<path d="M4420 8065 c-19 -7 -72 -14 -117 -14 -45 -1 -85 -5 -88 -11 -3 -5
-26 -10 -49 -10 -24 0 -63 -7 -87 -16 -24 -8 -56 -13 -71 -10 -16 3 -31 0 -38
-9 -8 -9 -30 -15 -56 -15 -24 0 -44 -4 -44 -10 0 -5 -17 -10 -39 -10 -22 0
-44 -6 -51 -15 -7 -8 -25 -15 -41 -15 -15 0 -31 -4 -34 -10 -3 -5 -19 -10 -36
-10 -16 0 -29 -4 -29 -10 0 -5 -8 -10 -17 -10 -25 0 -103 -31 -103 -41 0 -5
-14 -9 -30 -9 -17 0 -48 -11 -70 -25 -22 -14 -45 -25 -51 -25 -7 0 -54 -20
-106 -45 -51 -25 -98 -45 -103 -45 -6 0 -10 -4 -10 -8 0 -5 -17 -17 -37 -28
-21 -10 -42 -25 -46 -31 -4 -7 -15 -13 -23 -13 -13 0 -76 -37 -156 -92 -15
-10 -31 -18 -35 -18 -4 0 -26 -16 -48 -35 -22 -20 -50 -38 -62 -41 -13 -4 -23
-11 -23 -16 0 -12 -39 -48 -51 -48 -4 0 -25 -17 -47 -37 -22 -21 -55 -49 -73
-63 -93 -70 -309 -286 -309 -309 0 -4 -25 -32 -55 -62 -31 -30 -68 -75 -82
-101 -14 -27 -32 -48 -39 -48 -7 0 -15 -8 -18 -17 -3 -10 -19 -34 -36 -53 -16
-19 -30 -40 -30 -47 0 -6 -6 -18 -13 -25 -18 -20 -67 -96 -67 -106 0 -5 -9
-17 -20 -27 -11 -10 -20 -26 -20 -35 0 -9 -5 -21 -11 -27 -13 -13 -31 -44 -56
-95 -10 -21 -21 -38 -25 -38 -5 0 -8 -6 -8 -12 0 -11 -40 -100 -81 -180 -5
-10 -9 -24 -9 -32 0 -7 -7 -19 -15 -26 -8 -7 -15 -23 -15 -36 0 -12 -4 -26
-10 -29 -5 -3 -10 -17 -10 -31 0 -13 -4 -24 -10 -24 -5 0 -10 -10 -10 -23 0
-13 -7 -32 -15 -43 -8 -10 -15 -31 -15 -46 0 -15 -4 -30 -10 -33 -5 -3 -10
-19 -10 -34 0 -15 -7 -36 -15 -47 -8 -10 -15 -33 -15 -51 0 -17 -5 -35 -10
-38 -5 -3 -10 -24 -10 -45 0 -21 -5 -42 -10 -45 -6 -3 -10 -25 -10 -49 0 -23
-5 -47 -10 -52 -14 -14 -30 -131 -37 -254 -2 -52 -9 -100 -15 -107 -21 -26
-20 -172 8 -638 3 -44 9 -89 14 -100 4 -11 11 -48 14 -83 3 -35 10 -71 16 -82
5 -10 10 -37 10 -59 0 -23 5 -41 10 -41 6 0 10 -20 10 -44 0 -25 4 -48 10 -51
5 -3 10 -21 10 -39 0 -17 5 -37 10 -42 6 -6 17 -37 26 -70 8 -32 22 -72 30
-88 7 -16 14 -37 14 -47 0 -10 5 -21 10 -24 6 -3 10 -14 10 -24 0 -9 11 -41
25 -69 14 -29 25 -56 25 -60 0 -8 47 -110 91 -195 10 -22 19 -45 19 -53 0 -8
4 -14 9 -14 5 0 14 -14 21 -30 7 -17 16 -30 21 -30 5 0 9 -7 9 -14 0 -16 54
-101 71 -111 5 -4 9 -12 9 -20 0 -15 55 -101 71 -110 5 -4 9 -15 9 -26 0 -10
4 -19 10 -19 5 0 20 -17 34 -37 13 -21 39 -55 58 -76 19 -21 41 -50 49 -65 8
-15 43 -56 79 -92 36 -36 102 -103 147 -150 45 -47 98 -98 118 -115 19 -16 53
-46 74 -65 81 -74 160 -140 167 -140 7 0 66 -42 124 -87 15 -13 33 -23 38 -23
6 0 23 -10 39 -22 32 -26 61 -45 83 -55 8 -4 17 -9 20 -12 3 -3 22 -15 43 -25
20 -11 37 -23 37 -28 0 -4 6 -8 13 -8 8 0 27 -6 43 -14 16 -8 41 -19 57 -25
15 -6 27 -15 27 -21 0 -5 8 -10 18 -10 10 0 22 -4 28 -9 5 -4 30 -16 57 -26
26 -10 47 -22 47 -26 0 -5 14 -9 30 -9 17 0 30 -4 30 -8 0 -8 76 -36 82 -31 2
1 14 -4 28 -12 37 -20 92 -39 116 -39 11 0 29 -7 40 -15 10 -8 29 -15 42 -15
13 0 33 -5 45 -12 12 -7 32 -11 45 -9 13 1 30 -3 38 -10 16 -13 79 -28 159
-36 28 -3 54 -9 60 -14 5 -5 33 -9 62 -9 30 0 68 -6 87 -14 19 -8 75 -14 137
-15 57 -1 120 -7 139 -12 59 -18 552 6 620 30 19 6 54 11 77 9 23 -1 47 3 55
9 7 6 36 13 63 16 78 10 205 39 250 58 11 5 31 10 45 12 27 4 48 11 98 33 18
8 41 14 52 14 10 0 22 5 25 10 3 6 14 10 24 10 10 0 24 6 30 14 7 8 20 14 30
13 10 0 33 6 52 15 19 9 60 28 92 42 147 67 167 77 167 87 0 6 5 7 10 4 6 -4
42 13 81 37 38 23 79 48 89 54 11 6 28 18 38 27 10 10 24 17 31 17 7 0 24 9
38 20 14 11 31 20 38 20 6 0 21 11 33 25 12 14 27 25 32 25 6 0 21 10 33 23
12 13 36 32 53 43 144 89 528 473 651 651 18 25 36 49 40 52 10 8 103 149 103
157 0 3 11 19 25 36 14 16 25 36 25 43 0 8 6 18 13 22 13 9 24 26 79 132 21
40 41 78 45 85 4 6 8 16 8 21 0 6 15 40 33 78 18 37 32 72 32 76 0 5 6 22 14
38 40 81 66 146 66 163 0 10 5 22 10 25 6 3 10 16 10 28 0 12 10 47 21 77 12
30 24 74 26 98 3 23 9 42 14 42 5 0 9 16 9 36 0 19 5 45 12 57 12 22 24 89 34
197 4 30 10 60 15 66 5 6 10 53 11 105 0 52 7 114 14 139 16 53 17 206 3 345
-6 55 -14 150 -19 210 -15 176 -25 248 -38 272 -7 12 -12 40 -12 62 0 22 -5
43 -11 46 -6 4 -9 21 -8 39 2 17 -3 41 -9 53 -7 12 -12 29 -12 37 0 8 -6 30
-14 48 -8 18 -20 59 -27 91 -7 32 -16 60 -21 63 -4 3 -8 17 -8 32 0 15 -7 36
-15 46 -8 11 -15 30 -15 43 0 13 -4 23 -10 23 -5 0 -10 9 -10 19 0 11 -4 23
-10 26 -5 3 -10 15 -10 25 0 10 -7 25 -15 34 -8 8 -15 24 -15 35 0 11 -4 23
-10 26 -5 3 -10 15 -10 25 0 10 -3 20 -7 22 -12 5 -43 64 -43 82 0 9 -4 16
-10 16 -5 0 -10 6 -10 14 0 7 -7 19 -15 26 -9 7 -14 19 -11 27 3 8 -1 16 -9
19 -8 4 -15 15 -15 25 0 10 -4 19 -8 19 -5 0 -16 15 -25 33 -46 86 -128 215
-159 250 -16 16 -28 33 -28 37 0 4 -12 20 -26 36 -14 16 -34 42 -43 57 -10 15
-46 58 -80 95 -34 37 -99 108 -144 157 -45 50 -98 102 -117 117 -19 15 -66 56
-103 90 -38 35 -79 69 -92 75 -13 7 -36 25 -53 40 -16 16 -55 46 -86 68 -32
22 -63 45 -69 50 -25 21 -93 62 -113 69 -11 3 -29 14 -40 24 -11 9 -40 27 -65
40 -24 13 -78 41 -119 62 -122 64 -271 130 -291 130 -11 0 -19 5 -19 10 0 6
-9 10 -20 10 -11 0 -28 4 -38 9 -32 17 -156 60 -192 67 -14 3 -29 9 -35 15 -5
5 -23 9 -40 9 -17 0 -36 5 -43 12 -6 6 -25 11 -43 10 -17 0 -42 6 -55 15 -13
8 -34 13 -46 10 -12 -3 -31 -1 -42 5 -22 12 -98 23 -256 37 -52 5 -111 14
-130 20 -53 17 -515 13 -560 -4z m980 -179 c0 -18 -7 -39 -15 -46 -13 -11 -15
-47 -15 -226 1 -118 4 -214 8 -214 7 0 15 13 63 98 11 18 19 39 19 47 0 8 5
15 10 15 6 0 10 6 10 14 0 7 7 19 15 26 8 7 15 28 15 47 0 32 2 34 27 31 37
-4 41 -33 9 -65 -14 -14 -26 -31 -27 -37 -3 -50 -8 -79 -18 -89 -6 -6 -11 -27
-11 -47 0 -20 -5 -41 -11 -47 -6 -6 -9 -22 -7 -37 3 -24 7 -21 86 54 82 80
122 99 122 61 0 -11 -9 -23 -20 -26 -11 -3 -20 -14 -20 -24 0 -10 -7 -24 -15
-31 -8 -7 -15 -25 -15 -41 0 -16 -3 -29 -8 -29 -8 0 -32 -70 -32 -94 0 -7 -7
-19 -15 -26 -8 -7 -15 -21 -15 -31 0 -10 -11 -39 -25 -65 -14 -26 -25 -58 -25
-70 0 -13 -4 -24 -10 -24 -5 0 -10 -11 -10 -25 0 -14 -4 -25 -8 -25 -14 0 -71
30 -77 41 -4 5 -17 9 -30 9 -13 0 -27 5 -30 10 -3 6 -21 10 -38 10 -18 0 -41
7 -51 15 -15 11 -50 15 -145 14 -69 0 -132 0 -138 0 -10 1 -13 57 -13 247 0
214 -2 250 -17 275 -16 28 -16 29 2 44 34 25 45 18 45 -25 0 -22 5 -40 10 -40
6 0 10 -9 10 -19 0 -10 7 -21 15 -25 8 -3 15 -12 15 -21 0 -8 4 -23 9 -33 5
-9 12 -25 15 -35 3 -10 12 -17 19 -15 8 3 13 31 15 83 2 44 7 84 11 90 5 5 12
36 15 67 6 48 4 61 -10 75 -17 17 -17 18 0 21 42 8 49 -5 43 -77 -4 -44 -2
-72 6 -80 6 -6 13 -43 16 -83 5 -56 10 -73 21 -73 8 0 16 11 18 25 2 14 8 29
13 34 5 6 9 19 9 31 0 12 5 26 11 32 7 7 12 20 13 30 1 10 13 41 25 68 13 28
24 57 24 65 0 8 5 21 10 28 6 8 12 23 14 35 2 11 8 26 14 34 8 9 8 17 2 26
-14 17 -24 63 -16 71 3 3 24 6 45 6 37 0 38 -1 38 -34z m-170 -881 c14 -8 39
-14 57 -15 17 0 35 -4 38 -10 3 -5 17 -10 31 -10 13 0 24 -3 24 -7 0 -5 14
-16 30 -25 29 -17 41 -48 19 -48 -6 0 -9 -7 -5 -15 8 -21 -7 -19 -37 5 -14 11
-31 20 -39 20 -7 0 -22 6 -33 14 -30 20 -95 28 -242 30 l-131 1 -4 27 c-3 15
0 32 6 38 16 16 256 12 286 -5z m-11 -2046 l24 -20 -21 -29 c-16 -21 -22 -44
-22 -79 0 -27 -4 -53 -10 -56 -5 -3 -10 -23 -10 -44 0 -21 -7 -55 -15 -74 -8
-20 -15 -56 -15 -80 0 -24 -4 -47 -9 -53 -5 -5 -11 -20 -13 -33 -3 -28 -16
-35 -38 -21 -18 11 -21 121 -2 128 7 2 12 21 12 47 0 24 5 45 11 47 17 6 1 32
-32 51 -41 23 -190 25 -209 2 -7 -8 -18 -15 -25 -15 -41 0 -193 -136 -209
-188 -4 -12 -12 -22 -17 -22 -5 0 -9 -7 -9 -15 0 -8 -4 -23 -9 -33 -27 -49
-41 -88 -41 -113 0 -15 -4 -31 -10 -34 -5 -3 -10 -23 -10 -43 0 -21 -6 -47
-14 -58 -39 -56 -38 -756 2 -796 6 -6 12 -31 12 -54 0 -24 5 -46 10 -49 6 -3
10 -17 10 -31 0 -13 4 -32 9 -42 4 -9 21 -42 36 -73 19 -41 39 -64 71 -84 24
-15 44 -32 44 -36 0 -5 9 -9 20 -9 11 0 20 -4 20 -10 0 -6 32 -10 75 -10 l75
0 0 28 c0 16 -7 37 -15 48 -8 10 -15 27 -15 37 0 9 -4 17 -10 17 -14 0 -13 33
2 48 17 17 36 15 63 -7 17 -13 21 -21 13 -29 -8 -8 -4 -26 16 -67 14 -30 26
-62 26 -70 0 -8 5 -15 10 -15 6 0 10 -7 10 -15 0 -8 11 -38 25 -67 30 -63 31
-70 4 -86 -17 -11 -23 -10 -39 10 -11 13 -19 32 -20 44 0 12 -5 34 -10 51
l-11 30 -82 -14 c-62 -11 -91 -12 -118 -4 -20 6 -46 11 -58 11 -22 0 -61 18
-72 34 -4 5 -14 6 -23 3 -20 -8 -87 56 -111 106 -9 21 -21 37 -26 37 -5 0 -9
8 -9 19 0 10 -7 24 -15 31 -8 7 -15 23 -15 36 0 12 -4 26 -10 29 -5 3 -10 19
-10 34 0 16 -6 34 -14 40 -8 7 -14 28 -14 47 0 20 -5 41 -11 47 -6 6 -11 35
-11 63 0 29 -4 56 -10 59 -6 4 -10 110 -10 285 0 175 4 281 10 285 6 3 10 32
10 63 1 34 7 65 15 76 8 11 12 28 9 38 -3 11 1 30 10 43 9 13 16 38 16 55 0
17 4 38 9 48 4 9 16 35 26 57 9 22 21 48 26 57 5 10 9 24 9 32 0 8 7 16 15 20
8 3 15 12 15 20 0 50 175 266 216 266 7 0 16 5 19 10 3 6 52 10 110 10 58 0
107 -4 110 -10 3 -5 17 -10 31 -10 13 0 24 -4 24 -10 0 -5 16 -16 35 -25 19
-9 39 -23 46 -31 24 -29 39 -16 39 35 0 34 6 56 21 75 24 31 27 31 58 5z
m-2339 -109 c0 -5 19 -10 43 -10 23 0 53 -7 65 -16 12 -8 26 -13 31 -10 5 3
20 -3 34 -14 14 -11 28 -20 32 -20 12 0 35 -28 35 -42 0 -8 4 -18 9 -24 4 -5
6 -39 3 -77 -4 -67 -5 -68 -59 -117 -33 -30 -64 -50 -78 -50 -13 0 -27 -4 -30
-10 -3 -5 -19 -10 -34 -10 -15 0 -32 -5 -38 -11 -5 -5 -48 -12 -94 -15 -46 -2
-127 -8 -179 -12 l-95 -7 -3 -597 -2 -598 20 0 c12 0 41 9 65 20 68 31 117 5
81 -42 -11 -15 -29 -18 -107 -18 -63 0 -101 -5 -114 -14 -12 -7 -61 -15 -118
-19 l-98 -5 3 31 3 32 79 3 78 3 -7 42 c-4 23 -10 125 -13 227 -4 102 -11 191
-16 198 -4 8 -10 93 -13 190 -3 97 -9 185 -14 194 -5 9 -9 96 -9 192 0 121 -3
176 -11 176 -8 0 -10 54 -8 182 l4 182 -85 -3 c-164 -7 -155 -8 -158 18 -5 32
12 41 86 41 34 0 62 4 62 10 0 6 115 10 325 10 210 0 325 -4 325 -10z m3681
-357 c1 -32 0 -68 0 -80 -3 -28 15 -38 36 -21 15 11 16 11 10 -5 -5 -13 0 -24
15 -36 25 -21 19 -51 -12 -51 -11 0 -20 -4 -20 -10 0 -5 4 -10 9 -10 5 0 11
-9 14 -20 6 -23 -11 -27 -19 -5 -4 8 -12 15 -20 15 -11 0 -14 -18 -14 -75 0
-60 -3 -75 -15 -75 -9 0 -15 9 -15 24 0 14 -4 28 -10 31 -5 3 -10 28 -10 56 0
27 -2 49 -5 49 -3 0 -19 -16 -36 -35 -30 -34 -59 -46 -59 -25 0 6 5 10 10 10
6 0 14 8 17 18 4 9 13 22 21 28 17 12 8 34 -13 34 -12 0 -12 5 -3 25 6 14 18
25 27 25 11 0 5 9 -16 28 -33 28 -43 52 -22 52 7 0 22 -11 35 -25 28 -31 44
-32 44 -3 0 33 31 138 41 138 5 0 9 -26 10 -57z m-2497 -25 c3 -13 6 -53 6
-90 0 -56 3 -66 15 -62 9 4 15 1 15 -7 0 -8 14 -23 30 -34 37 -25 34 -39 -9
-43 l-32 -3 31 -35 c17 -19 27 -40 24 -46 -5 -7 -17 0 -34 20 -15 18 -30 32
-33 32 -4 0 -7 -34 -7 -76 0 -41 -5 -85 -11 -97 -11 -20 -13 -17 -26 28 -8 28
-16 71 -20 98 -3 26 -8 47 -10 47 -2 0 -19 -15 -36 -33 -30 -32 -67 -57 -83
-57 -4 0 7 14 25 32 17 17 41 44 52 59 l19 28 -27 3 c-35 4 -40 22 -8 36 32
15 32 29 -1 63 -38 40 -25 55 16 20 19 -17 38 -30 41 -31 3 0 9 21 12 48 8 62
26 122 36 122 5 0 11 -10 15 -22z m880 -48 c-5 -138 -4 -613 1 -619 4 -3 19 9
34 27 23 27 36 33 83 37 52 5 57 4 96 -31 l42 -36 2 -197 3 -196 38 2 c31 2
38 -1 35 -14 -2 -10 -15 -17 -38 -18 -19 -2 -68 -9 -109 -16 -70 -12 -74 -12
-90 8 -16 20 -19 20 -126 8 -60 -7 -122 -16 -137 -20 -24 -6 -28 -4 -34 19 -8
34 -4 38 42 42 20 1 41 9 45 16 5 7 9 210 9 451 0 384 -2 438 -15 443 -14 6
-13 8 1 19 29 21 10 45 -36 45 -27 0 -43 5 -47 15 -8 22 -2 25 45 27 23 1 47
8 54 15 7 9 27 13 57 11 46 -3 46 -3 45 -38z m1300 -136 c3 -9 6 -32 7 -52 1
-20 4 -48 8 -60 l6 -24 28 31 c27 30 47 40 47 22 0 -5 -13 -23 -30 -41 -16
-18 -30 -33 -30 -35 0 -1 9 -5 20 -8 29 -8 25 -21 -13 -39 -33 -16 -34 -18
-36 -79 -1 -34 -4 -66 -7 -71 -13 -21 -24 8 -24 64 0 66 -17 98 -52 98 -10 0
-18 7 -18 16 0 8 4 13 9 10 5 -4 20 -2 33 3 14 6 17 10 7 10 -21 1 -64 60 -51
73 6 6 19 -2 36 -23 15 -17 29 -29 33 -26 3 4 5 38 4 77 -1 66 9 90 23 54z
m-3013 -86 c6 -98 9 -112 23 -120 20 -11 20 -32 1 -48 -8 -7 -15 -27 -15 -45
0 -77 -26 -87 -36 -15 -4 28 -12 50 -18 50 -6 0 -20 7 -30 15 -19 14 -19 15
-1 35 10 11 13 20 7 20 -6 0 -18 14 -27 30 -18 36 -14 37 31 9 l34 -21 0 25
c0 64 28 122 31 65z m2095 -83 c6 -45 18 -52 52 -31 27 17 26 -7 -1 -30 l-28
-24 26 -10 c29 -11 25 -30 -5 -30 -11 0 -24 -8 -29 -18 -8 -15 -12 -35 -21
-117 -2 -27 -30 34 -30 67 0 38 0 39 -22 24 -32 -23 -41 -20 -22 9 15 23 15
26 -1 42 -17 17 -16 18 14 30 23 10 31 20 32 41 1 15 2 32 4 37 1 6 3 23 3 38
3 41 20 24 28 -28z m626 18 c22 -20 23 -36 3 -53 -20 -17 -20 -76 1 -84 21 -8
18 -9 44 14 33 29 106 28 115 -1 9 -28 -4 -35 -73 -43 -109 -13 -102 -5 -102
-116 0 -53 -5 -122 -11 -151 -16 -80 -13 -455 4 -502 20 -54 35 -67 53 -43 8
11 14 28 14 39 0 29 33 78 50 74 11 -2 15 -16 14 -59 -2 -79 -26 -107 -123
-139 -20 -7 -30 -2 -56 25 -17 18 -29 38 -27 45 2 6 -3 22 -11 34 -11 16 -12
28 -5 41 6 10 6 28 1 44 -5 15 -8 72 -7 127 2 109 5 522 4 543 0 15 -42 16
-57 1 -7 -7 -19 -9 -27 -6 -22 9 -20 46 2 53 9 3 32 13 50 22 26 14 32 22 32
50 0 43 16 72 39 72 10 0 24 7 31 15 16 19 19 19 42 -2z m1041 -117 c6 -16 -5
-73 -21 -103 -7 -13 -12 -68 -12 -132 0 -106 1 -110 26 -130 31 -25 62 -27 70
-6 4 8 11 15 16 15 19 0 47 46 48 78 0 17 5 32 10 32 6 0 10 44 10 111 0 135
6 149 65 149 24 0 46 -4 49 -9 3 -4 2 -42 -3 -84 -5 -42 -6 -135 -3 -207 4
-108 8 -130 20 -130 9 0 23 7 32 15 23 20 50 9 50 -21 0 -22 -4 -24 -54 -24
-29 0 -68 -3 -85 -6 -31 -6 -31 -6 -31 35 0 22 -4 41 -9 41 -5 0 -23 -13 -39
-28 -30 -28 -33 -29 -114 -24 -46 2 -89 10 -97 16 -8 6 -25 35 -38 64 -29 67
-34 235 -7 250 9 5 14 18 12 28 -3 15 -12 19 -50 19 -56 0 -65 7 -50 40 11 24
15 25 106 25 70 0 95 -3 99 -14z m-3922 -66 c-2 -14 -5 -109 -8 -213 -4 -164
-2 -188 12 -193 19 -8 46 13 39 31 -3 7 2 39 10 70 12 45 23 65 53 89 39 33
79 56 95 56 5 0 16 7 25 16 11 11 33 15 77 14 86 -2 84 -2 88 23 2 12 6 21 11
20 4 -2 21 -3 37 -3 23 0 30 -4 30 -20 0 -11 -4 -20 -8 -20 -5 0 -17 -18 -27
-40 l-18 -40 -85 0 c-79 0 -86 -2 -123 -31 -53 -42 -69 -76 -69 -148 0 -57 1
-60 40 -91 36 -29 46 -31 111 -31 45 0 75 5 80 12 4 7 18 10 34 7 21 -5 25 -3
19 11 -11 24 -13 101 -3 101 5 0 9 9 9 19 0 11 7 26 15 35 8 8 15 21 15 28 0
7 14 22 30 33 16 11 30 23 30 28 0 4 6 7 14 7 7 0 19 7 27 16 7 9 21 13 33 10
12 -3 30 2 40 10 26 18 90 18 106 -1 20 -24 29 -18 32 23 3 35 5 37 38 39 52
2 82 -29 40 -42 -12 -4 -24 -22 -31 -46 l-12 -39 -79 0 c-44 0 -88 -5 -101
-12 -39 -22 -87 -71 -87 -89 0 -10 -4 -21 -10 -24 -16 -10 -12 -93 6 -121 10
-14 31 -32 47 -41 39 -20 141 -21 164 -1 22 18 69 9 67 -12 -1 -8 -2 -20 -3
-26 0 -7 -21 -21 -46 -33 -50 -23 -178 -30 -191 -10 -3 6 -19 9 -34 6 -23 -5
-30 0 -54 38 -33 52 -49 60 -71 35 -18 -20 -74 -32 -150 -31 -126 1 -166 18
-186 81 -18 54 -28 63 -68 56 -76 -13 -75 -14 -82 27 -8 52 -15 55 -50 21 -28
-27 -36 -29 -102 -28 -40 0 -81 3 -92 6 -11 4 -23 7 -27 7 -5 1 -8 10 -8 20 0
11 -4 23 -10 26 -5 3 -10 15 -10 26 0 11 -7 27 -15 35 -11 12 -15 39 -15 104
0 80 2 89 20 95 13 4 20 15 20 31 0 24 -2 25 -52 22 -53 -3 -53 -3 -53 27 l0
30 103 3 c92 2 102 1 103 -15 1 -10 0 -22 -1 -28 -30 -113 -37 -264 -16 -310
15 -31 19 -33 54 -28 42 7 80 43 89 86 3 15 10 30 14 33 5 3 9 61 9 129 l0
124 28 15 c15 8 41 14 57 13 26 -2 30 -5 26 -27z m1021 -121 c-2 -57 -5 -121
-7 -141 -5 -46 12 -63 48 -47 32 14 57 6 57 -20 0 -24 -19 -31 -79 -31 -26 0
-51 -4 -56 -9 -6 -5 -41 -11 -78 -15 l-68 -7 3 33 c3 30 6 33 38 36 l35 3 0
112 c0 124 3 118 -67 103 -23 -5 -29 -2 -34 18 -9 38 2 46 69 46 38 1 69 6 81
15 10 8 28 13 40 11 20 -3 21 -8 18 -107z m2190 23 c6 -6 17 -12 23 -12 5 0
24 -13 41 -29 24 -22 30 -35 27 -54 -3 -13 0 -28 6 -31 13 -9 15 -122 2 -131
-6 -3 -59 -7 -119 -9 -61 -2 -115 -7 -121 -10 -19 -12 -13 -205 8 -240 29 -50
44 -54 103 -23 59 30 96 35 104 12 8 -21 -14 -45 -61 -66 -44 -20 -110 -25
-120 -9 -4 6 -14 8 -24 5 -20 -6 -59 33 -86 85 -10 19 -22 44 -28 55 -5 10
-11 46 -13 78 -1 33 -7 64 -12 69 -6 6 -7 22 -1 41 5 18 9 48 9 68 0 19 7 44
15 55 8 10 15 26 15 34 0 9 8 23 18 32 9 10 28 29 42 43 13 14 31 25 38 25 7
0 19 6 26 13 16 15 92 15 108 -1z m423 -3 c5 -5 16 -9 25 -9 9 0 34 -18 55
-40 31 -31 39 -47 37 -69 -2 -16 1 -32 7 -36 7 -4 11 -55 11 -135 0 -107 3
-129 16 -134 8 -3 24 -1 34 4 25 13 27 13 34 -6 12 -32 -13 -44 -88 -44 -42 0
-77 5 -84 12 -9 9 -24 8 -65 -1 -76 -19 -205 -1 -251 34 -21 16 -26 28 -26 61
0 35 6 48 36 78 35 35 38 36 111 36 41 0 84 5 95 11 14 8 23 8 31 0 6 -6 21
-11 34 -11 21 0 23 5 23 49 0 28 -4 53 -10 56 -5 3 -10 15 -10 26 0 10 -4 19
-10 19 -5 0 -10 6 -10 13 0 29 -38 50 -80 44 -76 -10 -107 -47 -80 -98 14 -25
60 -26 61 -1 0 12 3 11 10 -7 15 -37 -3 -50 -66 -46 -64 4 -82 18 -100 79 -13
43 -13 45 14 75 15 17 36 31 47 31 10 0 27 7 37 14 19 15 144 11 162 -5z
m-1084 -142 c59 -32 68 -41 63 -64 -4 -14 -2 -23 5 -23 6 0 11 -10 11 -23 0
-13 5 -28 10 -33 7 -7 11 -62 12 -132 1 -143 5 -154 48 -129 27 16 31 16 36 3
11 -28 -4 -46 -35 -46 -17 0 -49 -7 -71 -16 -39 -16 -42 -16 -54 2 -12 16 -27
18 -140 15 -87 -2 -131 1 -141 9 -8 6 -19 9 -24 5 -19 -11 -43 31 -46 79 -2
39 2 51 25 76 15 17 34 30 41 30 7 0 20 7 30 16 14 13 22 13 39 4 13 -7 42
-10 74 -6 28 3 66 5 84 5 32 0 32 1 32 50 0 27 -5 53 -10 56 -6 3 -8 16 -4 29
13 54 -136 77 -177 27 -22 -27 -13 -69 17 -77 12 -3 27 -3 32 0 10 6 26 -23
17 -32 -2 -3 -26 -8 -52 -13 -44 -6 -50 -5 -75 22 -14 15 -33 43 -42 60 -15
30 -15 34 1 53 52 61 62 65 169 66 64 0 110 -5 125 -13z"/>
<path d="M2527 4794 c-4 -4 -7 -78 -7 -164 l0 -157 123 5 c79 3 129 9 142 18
11 8 32 14 48 14 19 0 40 12 64 35 32 31 37 42 38 86 2 41 -3 56 -20 75 -12
13 -29 24 -37 24 -9 0 -21 7 -28 15 -7 8 -24 15 -39 15 -15 0 -31 4 -36 9 -6
5 -44 12 -85 15 -41 3 -93 8 -115 12 -22 3 -43 2 -48 -2z"/>
<path d="M5003 3776 c-18 -19 -33 -37 -33 -41 0 -4 -6 -21 -14 -38 -18 -40
-27 -101 -29 -197 -2 -82 0 -84 61 -65 19 6 24 3 29 -14 3 -14 11 -20 22 -17
67 19 61 0 60 184 -1 92 -4 178 -8 192 -11 39 -49 38 -88 -4z"/>
<path d="M6205 3789 c-24 -12 -55 -70 -55 -102 0 -13 -5 -28 -11 -34 -7 -7 -9
-19 -6 -27 8 -19 65 -15 81 5 6 8 22 16 36 17 32 5 38 11 21 21 -10 7 -12 21
-7 56 10 66 -10 88 -59 64z"/>
<path d="M6605 3553 c-61 -9 -100 -79 -56 -103 25 -13 98 -13 106 0 3 6 16 10
29 10 25 0 50 23 60 57 12 38 -38 50 -139 36z"/>
<path d="M5460 3415 c-7 -8 -19 -15 -26 -15 -22 0 -22 -69 -1 -82 15 -9 129 2
142 13 5 5 16 9 25 9 18 0 44 54 36 75 -8 22 -158 21 -176 0z"/>
<path d="M7300 8006 c0 -8 -21 -37 -47 -66 l-46 -52 31 -29 c18 -17 36 -28 41
-25 4 3 16 -3 26 -14 20 -22 41 -17 72 19 24 27 25 29 27 73 2 29 -30 72 -72
96 -28 15 -32 15 -32 -2z"/>
<path d="M7760 7570 c-8 -11 -20 -20 -26 -20 -10 0 -44 -30 -153 -132 -21 -21
-43 -38 -47 -38 -4 0 -16 -7 -25 -16 -18 -16 -16 -19 33 -70 33 -35 60 -54 75
-54 13 0 23 -4 23 -10 0 -14 48 -24 63 -12 6 6 32 18 57 28 46 18 90 57 90 79
0 7 7 18 15 25 17 14 22 126 6 132 -5 2 -11 9 -13 17 -3 12 -73 91 -81 91 -1
0 -9 -9 -17 -20z"/>
<path d="M701 5835 c-15 -14 -25 -37 -26 -57 -1 -18 -4 -40 -8 -48 -9 -19 33
-40 79 -40 18 0 36 -4 39 -10 3 -5 17 -10 30 -10 32 0 55 44 55 104 0 35 -4
46 -19 51 -11 3 -22 12 -25 20 -9 26 -96 19 -125 -10z"/>
<path d="M8283 3482 c-13 -15 -23 -32 -23 -39 0 -6 -7 -19 -16 -27 -14 -14
-14 -18 0 -31 8 -8 21 -15 28 -15 8 0 23 -7 34 -15 10 -8 29 -15 41 -15 12 0
25 -4 28 -10 11 -18 20 -11 34 28 32 90 5 151 -69 151 -26 1 -41 -6 -57 -27z"/>
<path d="M1135 3380 c-3 -5 -14 -10 -24 -10 -54 0 -98 -53 -66 -80 8 -7 15
-21 15 -32 0 -10 5 -16 10 -13 6 3 10 1 10 -6 0 -15 30 -38 51 -39 24 0 80 30
74 41 -4 5 -1 9 4 9 14 0 14 77 1 85 -5 3 -10 17 -10 31 0 20 -5 24 -29 24
-17 0 -33 -4 -36 -10z"/>
<path d="M8105 2833 c19 -20 35 -40 35 -45 0 -5 13 -23 30 -41 29 -31 30 -31
45 -12 8 11 23 36 32 55 9 19 18 38 20 42 8 16 -64 38 -129 38 l-69 0 36 -37z"/>
<path d="M1297 2843 c-30 -5 -127 -95 -127 -118 0 -8 -4 -15 -10 -15 -14 0
-12 -67 3 -109 13 -39 79 -111 101 -111 7 0 19 -7 26 -15 41 -50 238 40 240
110 0 11 7 29 15 39 19 26 19 75 0 82 -8 4 -15 14 -15 24 0 10 -7 25 -15 33
-8 8 -11 17 -8 20 8 9 -23 37 -40 37 -9 0 -17 5 -19 11 -4 11 -106 20 -151 12z"/>
<path d="M1793 2231 c-33 -5 -54 -17 -93 -54 -27 -27 -50 -57 -50 -67 0 -10
-7 -31 -15 -46 -19 -36 -19 -48 0 -64 8 -7 15 -22 15 -34 0 -25 68 -96 92 -96
9 0 18 -5 20 -10 4 -14 107 -15 121 -1 6 6 18 11 27 11 25 1 80 57 96 100 3 8
10 23 15 32 12 23 12 85 -1 93 -5 3 -10 14 -10 25 0 10 -7 20 -15 24 -8 3 -15
11 -15 18 0 15 -35 48 -49 48 -5 0 -11 4 -13 8 -4 13 -76 20 -125 13z"/>
<path d="M6520 1275 c0 -121 4 -125 74 -91 31 15 58 31 61 36 3 4 -18 31 -45
58 -28 28 -50 48 -50 45 0 -3 -9 5 -20 18 l-19 24 -1 -90z"/>
<path d="M5865 1170 c-3 -5 -17 -10 -31 -10 -21 0 -24 -4 -24 -40 0 -22 5 -40
10 -40 6 0 10 -13 10 -29 0 -16 7 -37 16 -45 9 -10 13 -24 9 -36 -4 -13 -1
-22 9 -26 10 -4 16 -18 16 -38 0 -17 7 -39 15 -49 7 -11 11 -25 8 -33 -6 -17
23 -49 32 -34 3 5 19 10 34 10 16 0 34 7 41 15 7 8 16 12 21 9 5 -3 12 2 15
10 3 9 12 16 18 16 7 0 18 12 25 28 8 15 17 35 22 44 34 67 -23 197 -109 246
-26 14 -128 16 -137 2z"/>
</g>
</svg>
